<svg xmlns="http://www.w3.org/2000/svg" xmlns:xlink="http://www.w3.org/1999/xlink" width="800" zoomAndPan="magnify" viewBox="0 0 600 599.999999" height="800" preserveAspectRatio="xMidYMid meet" version="1.2"><g id="36fff43069"><path style=" stroke:none;fill-rule:nonzero;fill:#2a04ce;fill-opacity:1;" d="M 34.65625 34.15625 L 565.585938 34.15625 L 565.585938 110.410156 L 34.65625 110.410156 Z M 34.65625 34.15625 "/><path style=" stroke:none;fill-rule:nonzero;fill:#2a04ce;fill-opacity:1;" d="M 34.3125 455.625 L 34.3125 137.097656 L 565.101562 137.097656 L 565.449219 455.625 L 299.707031 591.835938 Z M 34.3125 455.625 "/><path style=" stroke:none;fill-rule:nonzero;fill:#0f0f0f;fill-opacity:1;" d="M 250.992188 272.964844 L 351.816406 272.964844 L 351.816406 338.125 L 250.992188 338.125 Z M 250.992188 272.964844 "/><path style=" stroke:none;fill-rule:nonzero;fill:#f4f4f4;fill-opacity:1;" d="M 256.8125 279.6875 L 346.0625 279.6875 L 346.0625 331.816406 L 256.8125 331.816406 Z M 256.8125 279.6875 "/><path style=" stroke:none;fill-rule:nonzero;fill:#f2f2f2;fill-opacity:1;" d="M 323.335938 334.730469 C 323.335938 334.996094 323.292969 335.253906 323.203125 335.5 C 323.117188 335.746094 322.992188 335.960938 322.828125 336.152344 C 322.664062 336.339844 322.476562 336.484375 322.265625 336.585938 C 322.054688 336.6875 321.832031 336.738281 321.601562 336.738281 C 321.375 336.738281 321.152344 336.6875 320.941406 336.585938 C 320.726562 336.484375 320.539062 336.339844 320.378906 336.152344 C 320.214844 335.960938 320.089844 335.746094 320.003906 335.5 C 319.914062 335.253906 319.871094 334.996094 319.871094 334.730469 C 319.871094 334.464844 319.914062 334.207031 320.003906 333.960938 C 320.089844 333.714844 320.214844 333.496094 320.378906 333.308594 C 320.539062 333.121094 320.726562 332.972656 320.941406 332.871094 C 321.152344 332.769531 321.375 332.71875 321.601562 332.71875 C 321.832031 332.71875 322.054688 332.769531 322.265625 332.871094 C 322.476562 332.972656 322.664062 333.121094 322.828125 333.308594 C 322.992188 333.496094 323.117188 333.714844 323.203125 333.960938 C 323.292969 334.207031 323.335938 334.464844 323.335938 334.730469 Z M 323.335938 334.730469 "/><path style=" stroke:none;fill-rule:nonzero;fill:#f2f2f2;fill-opacity:1;" d="M 333.382812 334.730469 C 333.382812 334.996094 333.339844 335.253906 333.25 335.5 C 333.164062 335.746094 333.039062 335.960938 332.875 336.152344 C 332.714844 336.339844 332.527344 336.484375 332.3125 336.585938 C 332.101562 336.6875 331.878906 336.738281 331.652344 336.738281 C 331.421875 336.738281 331.199219 336.6875 330.988281 336.585938 C 330.777344 336.484375 330.589844 336.339844 330.425781 336.152344 C 330.261719 335.960938 330.136719 335.746094 330.050781 335.5 C 329.960938 335.253906 329.917969 334.996094 329.917969 334.730469 C 329.917969 334.464844 329.960938 334.207031 330.050781 333.960938 C 330.136719 333.714844 330.261719 333.496094 330.425781 333.308594 C 330.589844 333.121094 330.777344 332.972656 330.988281 332.871094 C 331.199219 332.769531 331.421875 332.71875 331.652344 332.71875 C 331.878906 332.71875 332.101562 332.769531 332.3125 332.871094 C 332.527344 332.972656 332.714844 333.121094 332.875 333.308594 C 333.039062 333.496094 333.164062 333.714844 333.25 333.960938 C 333.339844 334.207031 333.382812 334.464844 333.382812 334.730469 Z M 333.382812 334.730469 "/><path style=" stroke:none;fill-rule:nonzero;fill:#db1f2a;fill-opacity:1;" d="M 353.132812 159.28125 L 249.746094 159.28125 C 252.792969 155.605469 254.320312 148.8125 258.890625 148.1875 C 289.308594 143.890625 315.15625 144.03125 341.351562 148.1875 C 345.234375 148.8125 349.25 155.605469 353.132812 159.28125 Z M 353.132812 159.28125 "/><path style=" stroke:none;fill-rule:nonzero;fill:#db1f2a;fill-opacity:1;" d="M 249.746094 162.054688 L 353.203125 162.054688 L 353.203125 171.757812 L 249.746094 171.757812 Z M 249.746094 162.054688 "/><path style=" stroke:none;fill-rule:nonzero;fill:#db1f2a;fill-opacity:1;" d="M 353.132812 261.875 C 342.808594 257.296875 324.996094 250.921875 302.0625 250.78125 C 278.433594 250.644531 260.070312 257.230469 249.675781 261.875 C 249.675781 232.96875 249.675781 204.128906 249.675781 175.222656 L 353.132812 175.222656 Z M 353.132812 261.875 "/><path style=" stroke:none;fill-rule:nonzero;fill:#2a04ce;fill-opacity:1;" d="M 307.953125 211.964844 C 307.953125 212.375 307.914062 212.78125 307.839844 213.179688 C 307.761719 213.582031 307.652344 213.972656 307.503906 214.351562 C 307.355469 214.730469 307.171875 215.089844 306.957031 215.429688 C 306.742188 215.769531 306.5 216.085938 306.226562 216.375 C 305.953125 216.664062 305.65625 216.925781 305.332031 217.152344 C 305.011719 217.378906 304.671875 217.570312 304.316406 217.726562 C 303.957031 217.886719 303.589844 218.003906 303.210938 218.082031 C 302.832031 218.164062 302.449219 218.203125 302.0625 218.203125 C 301.675781 218.203125 301.292969 218.164062 300.914062 218.082031 C 300.53125 218.003906 300.164062 217.882812 299.808594 217.726562 C 299.449219 217.570312 299.109375 217.378906 298.789062 217.152344 C 298.46875 216.925781 298.171875 216.664062 297.898438 216.375 C 297.621094 216.085938 297.378906 215.769531 297.164062 215.429688 C 296.949219 215.089844 296.769531 214.730469 296.621094 214.351562 C 296.472656 213.972656 296.359375 213.582031 296.285156 213.179688 C 296.210938 212.78125 296.171875 212.375 296.171875 211.964844 C 296.171875 211.554688 296.210938 211.148438 296.285156 210.746094 C 296.359375 210.34375 296.472656 209.953125 296.621094 209.578125 C 296.769531 209.199219 296.949219 208.839844 297.164062 208.496094 C 297.378906 208.15625 297.621094 207.84375 297.898438 207.550781 C 298.171875 207.261719 298.46875 207.003906 298.789062 206.777344 C 299.109375 206.550781 299.449219 206.355469 299.808594 206.199219 C 300.164062 206.042969 300.53125 205.925781 300.914062 205.84375 C 301.292969 205.765625 301.675781 205.726562 302.0625 205.726562 C 302.449219 205.726562 302.832031 205.765625 303.210938 205.84375 C 303.589844 205.925781 303.957031 206.042969 304.316406 206.199219 C 304.671875 206.355469 305.011719 206.550781 305.332031 206.777344 C 305.65625 207.003906 305.953125 207.261719 306.226562 207.550781 C 306.5 207.84375 306.742188 208.15625 306.957031 208.496094 C 307.171875 208.839844 307.355469 209.199219 307.503906 209.578125 C 307.652344 209.953125 307.761719 210.34375 307.839844 210.746094 C 307.914062 211.148438 307.953125 211.554688 307.953125 211.964844 Z M 307.953125 211.964844 "/><path style=" stroke:none;fill-rule:nonzero;fill:#0f0f0f;fill-opacity:1;" d="M 317.722656 356.148438 L 287.234375 356.148438 L 290.699219 334.660156 L 314.257812 334.660156 Z M 317.722656 356.148438 "/><path style=" stroke:none;fill-rule:nonzero;fill:#db1f2a;fill-opacity:1;" d="M 293.539062 243.851562 L 310.585938 243.851562 L 310.585938 389.421875 L 293.539062 389.421875 Z M 293.539062 243.851562 "/><path style=" stroke:none;fill-rule:nonzero;fill:#db1f2a;fill-opacity:1;" d="M 260.207031 354.070312 L 345.300781 354.070312 L 345.300781 394.96875 L 260.207031 394.96875 Z M 260.207031 354.070312 "/><path style=" stroke:none;fill-rule:nonzero;fill:#db1f2a;fill-opacity:1;" d="M 335.460938 376.253906 C 335.460938 377.136719 335.40625 378.019531 335.300781 378.902344 C 335.195312 379.785156 335.035156 380.65625 334.824219 381.527344 C 334.613281 382.394531 334.351562 383.253906 334.039062 384.101562 C 333.722656 384.949219 333.359375 385.78125 332.945312 386.597656 C 332.53125 387.417969 332.066406 388.214844 331.558594 388.996094 C 331.046875 389.777344 330.492188 390.535156 329.890625 391.273438 C 329.289062 392.007812 328.644531 392.71875 327.957031 393.402344 C 327.269531 394.085938 326.546875 394.742188 325.78125 395.367188 C 325.015625 395.996094 324.214844 396.589844 323.375 397.152344 C 322.539062 397.710938 321.671875 398.238281 320.769531 398.730469 C 319.871094 399.222656 318.945312 399.675781 317.988281 400.09375 C 317.035156 400.511719 316.058594 400.890625 315.058594 401.230469 C 314.054688 401.566406 313.039062 401.867188 312.003906 402.125 C 310.964844 402.378906 309.917969 402.59375 308.855469 402.769531 C 307.792969 402.941406 306.726562 403.070312 305.648438 403.15625 C 304.570312 403.242188 303.492188 403.289062 302.40625 403.289062 C 301.324219 403.289062 300.246094 403.242188 299.167969 403.15625 C 298.089844 403.070312 297.019531 402.941406 295.960938 402.769531 C 294.898438 402.59375 293.847656 402.378906 292.8125 402.125 C 291.777344 401.867188 290.757812 401.566406 289.757812 401.230469 C 288.757812 400.890625 287.78125 400.511719 286.828125 400.09375 C 285.871094 399.675781 284.945312 399.222656 284.042969 398.730469 C 283.144531 398.238281 282.277344 397.710938 281.4375 397.152344 C 280.601562 396.589844 279.800781 395.996094 279.035156 395.367188 C 278.269531 394.742188 277.542969 394.085938 276.859375 393.402344 C 276.171875 392.71875 275.527344 392.007812 274.925781 391.273438 C 274.324219 390.535156 273.769531 389.777344 273.257812 388.996094 C 272.746094 388.214844 272.285156 387.417969 271.871094 386.597656 C 271.457031 385.78125 271.09375 384.949219 270.777344 384.101562 C 270.464844 383.253906 270.203125 382.394531 269.988281 381.527344 C 269.777344 380.65625 269.621094 379.785156 269.515625 378.902344 C 269.40625 378.019531 269.355469 377.136719 269.355469 376.253906 C 269.355469 375.367188 269.40625 374.484375 269.515625 373.601562 C 269.621094 372.722656 269.777344 371.847656 269.988281 370.976562 C 270.203125 370.109375 270.464844 369.25 270.777344 368.402344 C 271.09375 367.558594 271.457031 366.722656 271.871094 365.90625 C 272.285156 365.089844 272.746094 364.289062 273.257812 363.507812 C 273.769531 362.726562 274.324219 361.96875 274.925781 361.230469 C 275.527344 360.496094 276.171875 359.785156 276.859375 359.101562 C 277.542969 358.417969 278.269531 357.761719 279.035156 357.136719 C 279.800781 356.507812 280.601562 355.914062 281.4375 355.355469 C 282.277344 354.792969 283.144531 354.265625 284.042969 353.773438 C 284.945312 353.28125 285.871094 352.828125 286.828125 352.410156 C 287.78125 351.992188 288.757812 351.613281 289.757812 351.273438 C 290.757812 350.9375 291.777344 350.636719 292.8125 350.382812 C 293.847656 350.125 294.898438 349.910156 295.960938 349.738281 C 297.019531 349.5625 298.089844 349.433594 299.167969 349.347656 C 300.246094 349.261719 301.324219 349.21875 302.40625 349.21875 C 303.492188 349.21875 304.570312 349.261719 305.648438 349.347656 C 306.726562 349.433594 307.792969 349.5625 308.855469 349.738281 C 309.917969 349.910156 310.964844 350.125 312.003906 350.382812 C 313.039062 350.636719 314.054688 350.9375 315.058594 351.273438 C 316.058594 351.613281 317.035156 351.992188 317.988281 352.410156 C 318.945312 352.828125 319.871094 353.28125 320.769531 353.773438 C 321.671875 354.265625 322.539062 354.792969 323.375 355.355469 C 324.214844 355.914062 325.015625 356.507812 325.78125 357.136719 C 326.546875 357.761719 327.269531 358.417969 327.957031 359.101562 C 328.644531 359.785156 329.289062 360.496094 329.890625 361.230469 C 330.492188 361.96875 331.046875 362.726562 331.558594 363.507812 C 332.066406 364.289062 332.53125 365.089844 332.945312 365.90625 C 333.359375 366.722656 333.722656 367.558594 334.039062 368.402344 C 334.351562 369.25 334.613281 370.109375 334.824219 370.976562 C 335.035156 371.847656 335.195312 372.722656 335.300781 373.601562 C 335.40625 374.484375 335.460938 375.367188 335.460938 376.253906 Z M 335.460938 376.253906 "/><path style=" stroke:none;fill-rule:nonzero;fill:#2a04ce;fill-opacity:1;" d="M 315.226562 376.253906 C 315.226562 377.117188 315.148438 377.972656 314.988281 378.820312 C 314.828125 379.667969 314.589844 380.492188 314.277344 381.292969 C 313.964844 382.089844 313.582031 382.851562 313.125 383.570312 C 312.671875 384.289062 312.152344 384.953125 311.574219 385.566406 C 310.996094 386.175781 310.363281 386.722656 309.683594 387.203125 C 309.003906 387.683594 308.285156 388.089844 307.527344 388.421875 C 306.769531 388.75 305.992188 389 305.1875 389.171875 C 304.382812 389.339844 303.574219 389.421875 302.753906 389.421875 C 301.933594 389.421875 301.125 389.339844 300.320312 389.171875 C 299.519531 389 298.738281 388.75 297.980469 388.421875 C 297.222656 388.089844 296.503906 387.683594 295.824219 387.203125 C 295.144531 386.722656 294.515625 386.175781 293.933594 385.566406 C 293.355469 384.953125 292.839844 384.289062 292.382812 383.570312 C 291.929688 382.851562 291.542969 382.089844 291.230469 381.292969 C 290.917969 380.492188 290.679688 379.667969 290.519531 378.820312 C 290.359375 377.972656 290.28125 377.117188 290.28125 376.253906 C 290.28125 375.386719 290.359375 374.53125 290.519531 373.683594 C 290.679688 372.835938 290.917969 372.011719 291.230469 371.210938 C 291.542969 370.414062 291.929688 369.652344 292.382812 368.933594 C 292.839844 368.214844 293.355469 367.550781 293.933594 366.9375 C 294.515625 366.328125 295.144531 365.78125 295.824219 365.300781 C 296.503906 364.820312 297.222656 364.414062 297.980469 364.082031 C 298.738281 363.753906 299.519531 363.503906 300.320312 363.335938 C 301.125 363.164062 301.933594 363.082031 302.753906 363.082031 C 303.574219 363.082031 304.382812 363.164062 305.1875 363.335938 C 305.992188 363.503906 306.769531 363.753906 307.527344 364.082031 C 308.285156 364.414062 309.003906 364.820312 309.683594 365.300781 C 310.363281 365.78125 310.996094 366.328125 311.574219 366.9375 C 312.152344 367.550781 312.671875 368.214844 313.125 368.933594 C 313.582031 369.652344 313.964844 370.414062 314.277344 371.210938 C 314.589844 372.011719 314.828125 372.835938 314.988281 373.683594 C 315.148438 374.53125 315.226562 375.386719 315.226562 376.253906 Z M 315.226562 376.253906 "/><path style=" stroke:none;fill-rule:nonzero;fill:#db1f2a;fill-opacity:1;" d="M 308.644531 376.253906 C 308.644531 376.660156 308.605469 377.066406 308.53125 377.46875 C 308.457031 377.871094 308.34375 378.261719 308.195312 378.640625 C 308.046875 379.019531 307.867188 379.378906 307.652344 379.71875 C 307.4375 380.058594 307.191406 380.375 306.917969 380.664062 C 306.644531 380.953125 306.347656 381.210938 306.027344 381.441406 C 305.707031 381.667969 305.367188 381.859375 305.007812 382.015625 C 304.652344 382.171875 304.28125 382.292969 303.902344 382.371094 C 303.523438 382.449219 303.140625 382.492188 302.753906 382.492188 C 302.367188 382.492188 301.984375 382.449219 301.605469 382.371094 C 301.226562 382.292969 300.859375 382.171875 300.5 382.015625 C 300.144531 381.859375 299.804688 381.667969 299.480469 381.441406 C 299.160156 381.210938 298.863281 380.953125 298.589844 380.664062 C 298.316406 380.375 298.070312 380.058594 297.855469 379.71875 C 297.640625 379.378906 297.460938 379.019531 297.3125 378.640625 C 297.164062 378.261719 297.054688 377.871094 296.976562 377.46875 C 296.902344 377.066406 296.863281 376.660156 296.863281 376.253906 C 296.863281 375.84375 296.902344 375.4375 296.976562 375.035156 C 297.054688 374.632812 297.164062 374.242188 297.3125 373.863281 C 297.460938 373.484375 297.640625 373.125 297.855469 372.785156 C 298.070312 372.445312 298.316406 372.128906 298.589844 371.839844 C 298.863281 371.550781 299.160156 371.292969 299.480469 371.066406 C 299.804688 370.835938 300.144531 370.644531 300.5 370.488281 C 300.859375 370.332031 301.226562 370.214844 301.605469 370.132812 C 301.984375 370.054688 302.367188 370.011719 302.753906 370.011719 C 303.140625 370.011719 303.523438 370.054688 303.902344 370.132812 C 304.28125 370.214844 304.652344 370.332031 305.007812 370.488281 C 305.367188 370.644531 305.707031 370.835938 306.027344 371.066406 C 306.347656 371.292969 306.644531 371.550781 306.917969 371.839844 C 307.191406 372.128906 307.4375 372.445312 307.652344 372.785156 C 307.867188 373.125 308.046875 373.484375 308.195312 373.863281 C 308.34375 374.242188 308.457031 374.632812 308.53125 375.035156 C 308.605469 375.4375 308.644531 375.84375 308.644531 376.253906 Z M 308.644531 376.253906 "/><path style=" stroke:none;fill-rule:nonzero;fill:#db1f2a;fill-opacity:1;" d="M 392.421875 261.179688 L 364.910156 261.179688 C 369.070312 250.226562 373.921875 233.660156 374.753906 212.933594 C 375.863281 185.898438 369.554688 164.546875 364.910156 152.347656 C 374.058594 152.347656 383.273438 152.347656 392.421875 152.347656 C 395.609375 168.5 398.171875 189.089844 397.6875 212.933594 C 397.273438 231.441406 395.054688 247.730469 392.421875 261.179688 Z M 392.421875 261.179688 "/><path style=" stroke:none;fill-rule:nonzero;fill:#db1f2a;fill-opacity:1;" d="M 541.054688 171.757812 L 378.007812 171.757812 C 373.710938 171.757812 370.175781 168.015625 370.175781 163.441406 L 370.175781 155.816406 C 370.175781 151.238281 373.710938 152.347656 378.007812 152.347656 L 540.988281 152.347656 C 545.28125 152.347656 548.816406 156.089844 548.816406 160.667969 L 548.816406 163.441406 C 548.886719 168.015625 545.351562 171.757812 541.054688 171.757812 Z M 541.054688 171.757812 "/><path style=" stroke:none;fill-rule:nonzero;fill:#db1f2a;fill-opacity:1;" d="M 509.179688 201.566406 L 385.699219 201.566406 C 381.125 201.566406 377.382812 197.824219 377.382812 193.246094 L 377.382812 190.472656 C 377.382812 185.898438 381.125 182.15625 385.699219 182.15625 L 509.179688 182.15625 C 513.753906 182.15625 517.496094 185.898438 517.496094 190.472656 L 517.496094 193.246094 C 517.496094 197.820312 513.753906 201.566406 509.179688 201.566406 Z M 509.179688 201.566406 "/><path style=" stroke:none;fill-rule:nonzero;fill:#db1f2a;fill-opacity:1;" d="M 471.832031 231.375 L 385.699219 231.375 C 381.125 231.375 377.382812 227.628906 377.382812 223.054688 L 377.382812 220.28125 C 377.382812 215.707031 381.125 211.964844 385.699219 211.964844 L 471.832031 211.964844 C 476.40625 211.964844 480.148438 215.707031 480.148438 220.28125 L 480.148438 223.054688 C 480.148438 227.628906 476.40625 231.375 471.832031 231.375 Z M 471.832031 231.375 "/><path style=" stroke:none;fill-rule:nonzero;fill:#db1f2a;fill-opacity:1;" d="M 445.015625 261.179688 L 379.1875 261.179688 C 374.613281 261.179688 370.871094 257.4375 370.871094 252.863281 L 370.871094 250.089844 C 370.871094 245.515625 374.613281 241.769531 379.1875 241.769531 L 445.015625 241.769531 C 449.589844 241.769531 453.332031 245.515625 453.332031 250.089844 L 453.332031 252.863281 C 453.332031 257.4375 449.589844 261.179688 445.015625 261.179688 Z M 445.015625 261.179688 "/><path style=" stroke:none;fill-rule:nonzero;fill:#db1f2a;fill-opacity:1;" d="M 207.824219 261.179688 L 235.332031 261.179688 C 231.171875 250.226562 226.324219 233.660156 225.492188 212.933594 C 224.382812 185.898438 230.691406 164.546875 235.332031 152.347656 C 226.1875 152.347656 216.96875 152.347656 207.824219 152.347656 C 204.632812 168.5 202.070312 189.089844 202.554688 212.933594 C 202.972656 231.441406 205.191406 247.730469 207.824219 261.179688 Z M 207.824219 261.179688 "/><path style=" stroke:none;fill-rule:nonzero;fill:#db1f2a;fill-opacity:1;" d="M 59.1875 171.757812 L 222.167969 171.757812 C 226.460938 171.757812 229.996094 168.015625 229.996094 163.441406 L 229.996094 155.816406 C 229.996094 151.238281 226.460938 152.347656 222.167969 152.347656 L 59.1875 152.347656 C 54.890625 152.347656 51.359375 156.089844 51.359375 160.667969 L 51.359375 163.441406 C 51.359375 168.015625 54.890625 171.757812 59.1875 171.757812 Z M 59.1875 171.757812 "/><path style=" stroke:none;fill-rule:nonzero;fill:#db1f2a;fill-opacity:1;" d="M 91.0625 201.566406 L 214.542969 201.566406 C 219.117188 201.566406 222.859375 197.824219 222.859375 193.246094 L 222.859375 190.472656 C 222.859375 185.898438 219.117188 182.15625 214.542969 182.15625 L 91.0625 182.15625 C 86.488281 182.15625 82.746094 185.898438 82.746094 190.472656 L 82.746094 193.246094 C 82.746094 197.820312 86.488281 201.566406 91.0625 201.566406 Z M 91.0625 201.566406 "/><path style=" stroke:none;fill-rule:nonzero;fill:#db1f2a;fill-opacity:1;" d="M 128.410156 231.375 L 214.542969 231.375 C 219.117188 231.375 222.859375 227.628906 222.859375 223.054688 L 222.859375 220.28125 C 222.859375 215.707031 219.117188 211.964844 214.542969 211.964844 L 128.410156 211.964844 C 123.835938 211.964844 120.097656 215.707031 120.097656 220.28125 L 120.097656 223.054688 C 120.097656 227.628906 123.839844 231.375 128.410156 231.375 Z M 128.410156 231.375 "/><path style=" stroke:none;fill-rule:nonzero;fill:#db1f2a;fill-opacity:1;" d="M 155.230469 261.179688 L 221.058594 261.179688 C 225.632812 261.179688 229.371094 257.4375 229.371094 252.863281 L 229.371094 250.089844 C 229.371094 245.515625 225.632812 241.769531 221.058594 241.769531 L 155.230469 241.769531 C 150.65625 241.769531 146.914062 245.515625 146.914062 250.089844 L 146.914062 252.863281 C 146.914062 257.4375 150.65625 261.179688 155.230469 261.179688 Z M 155.230469 261.179688 "/><path style=" stroke:none;fill-rule:nonzero;fill:#ff9028;fill-opacity:1;" d="M 404.199219 381.796875 C 392.074219 429.558594 353.546875 464.082031 309.269531 467.753906 C 258.683594 471.984375 210.179688 435.175781 196.667969 379.71875 L 236.648438 379.71875 C 241.707031 415.625 271.433594 441.484375 304.070312 440.027344 C 334.074219 438.710938 360.128906 414.515625 365.605469 381.796875 Z M 404.199219 381.796875 "/><path style=" stroke:none;fill-rule:nonzero;fill:#ff9028;fill-opacity:1;" d="M 389.789062 381.796875 L 418.617188 381.796875 L 418.617188 392.195312 L 389.789062 392.195312 Z M 389.789062 381.796875 "/><path style=" stroke:none;fill-rule:nonzero;fill:#ff9028;fill-opacity:1;" d="M 383.898438 400.515625 C 385.839844 399.128906 412.03125 412.992188 412.03125 412.992188 L 409.398438 424.082031 L 374.058594 424.082031 Z M 383.898438 400.515625 "/><path style=" stroke:none;fill-rule:nonzero;fill:#ff9028;fill-opacity:1;" d="M 360.339844 435.867188 C 361.65625 435.175781 378.703125 456.664062 378.703125 456.664062 L 364.980469 467.753906 L 342.667969 451.8125 Z M 360.339844 435.867188 "/><path style=" stroke:none;fill-rule:nonzero;fill:#ff9028;fill-opacity:1;" d="M 180.660156 379.71875 L 209.484375 379.71875 L 209.484375 390.117188 L 180.660156 390.117188 Z M 180.660156 379.71875 "/><path style=" stroke:none;fill-rule:nonzero;fill:#ff9028;fill-opacity:1;" d="M 215.375 398.433594 C 213.433594 397.046875 187.242188 410.910156 187.242188 410.910156 L 189.875 422.003906 L 225.214844 422.003906 Z M 215.375 398.433594 "/><path style=" stroke:none;fill-rule:nonzero;fill:#ff9028;fill-opacity:1;" d="M 238.933594 433.789062 C 237.621094 433.09375 220.574219 454.585938 220.574219 454.585938 L 234.292969 465.675781 L 256.535156 449.730469 Z M 238.933594 433.789062 "/><path style=" stroke:none;fill-rule:nonzero;fill:#ff9028;fill-opacity:1;" d="M 310.585938 461.515625 L 310.585938 480.925781 L 293.539062 480.925781 L 293.539062 458.050781 Z M 310.585938 461.515625 "/><path style=" stroke:none;fill-rule:nonzero;fill:#ffffff;fill-opacity:1;" d="M 171.789062 517.664062 C 180.796875 511.425781 206.992188 495.066406 243.164062 496.871094 C 272.820312 498.324219 294.09375 511.21875 303.378906 517.664062 L 303.378906 496.871094 C 292.152344 490.214844 264.019531 475.65625 226.808594 478.847656 C 201.585938 480.996094 182.53125 490.421875 171.789062 496.871094 Z M 171.789062 517.664062 "/><path style=" stroke:none;fill-rule:nonzero;fill:#ffffff;fill-opacity:1;" d="M 433.652344 517.664062 C 424.644531 511.425781 398.449219 495.066406 362.277344 496.871094 C 332.621094 498.324219 311.347656 511.21875 302.0625 517.664062 L 302.0625 496.871094 C 313.289062 490.214844 341.421875 475.65625 378.632812 478.847656 C 403.855469 480.996094 422.910156 490.421875 433.652344 496.871094 Z M 433.652344 517.664062 "/><path style=" stroke:none;fill-rule:nonzero;fill:#ffffff;fill-opacity:1;" d="M 94.472656 79.589844 L 101.496094 78.738281 C 102.285156 84.445312 104.875 87.300781 109.261719 87.300781 C 111.433594 87.300781 113.144531 86.714844 114.386719 85.550781 C 115.628906 84.382812 116.253906 82.933594 116.253906 81.210938 C 116.253906 80.195312 116.035156 79.332031 115.601562 78.621094 C 115.167969 77.914062 114.503906 77.328125 113.617188 76.871094 C 112.726562 76.414062 110.574219 75.648438 107.15625 74.574219 C 104.09375 73.621094 101.851562 72.589844 100.429688 71.472656 C 99.007812 70.355469 97.875 68.890625 97.039062 67.074219 C 96.199219 65.257812 95.78125 63.304688 95.78125 61.214844 C 95.78125 58.777344 96.316406 56.585938 97.394531 54.640625 C 98.472656 52.691406 99.957031 51.222656 101.855469 50.226562 C 103.75 49.234375 106.089844 48.734375 108.878906 48.734375 C 113.066406 48.734375 116.335938 49.902344 118.6875 52.238281 C 121.035156 54.574219 122.28125 57.914062 122.417969 62.261719 L 115.21875 62.65625 C 114.902344 60.261719 114.222656 58.585938 113.175781 57.628906 C 112.125 56.675781 110.636719 56.199219 108.699219 56.199219 C 106.761719 56.199219 105.273438 56.613281 104.226562 57.445312 C 103.175781 58.273438 102.652344 59.308594 102.652344 60.542969 C 102.652344 61.757812 103.128906 62.78125 104.082031 63.609375 C 105.03125 64.441406 107.214844 65.351562 110.632812 66.347656 C 114.246094 67.425781 116.855469 68.558594 118.464844 69.746094 C 120.074219 70.933594 121.304688 72.464844 122.152344 74.34375 C 123.003906 76.222656 123.425781 78.5 123.425781 81.179688 C 123.425781 85.058594 122.265625 88.320312 119.945312 90.957031 C 117.625 93.597656 113.992188 94.917969 109.054688 94.917969 C 100.320312 94.914062 95.460938 89.808594 94.472656 79.589844 Z M 94.472656 79.589844 "/><path style=" stroke:none;fill-rule:nonzero;fill:#ffffff;fill-opacity:1;" d="M 133.507812 94.152344 L 133.507812 49.496094 L 144.261719 49.496094 L 150.738281 79.988281 L 157.164062 49.496094 L 167.96875 49.496094 L 167.96875 94.152344 L 161.273438 94.152344 L 161.273438 58.96875 L 154.171875 94.152344 L 147.253906 94.152344 L 140.207031 58.96875 L 140.207031 94.152344 Z M 133.507812 94.152344 "/><path style=" stroke:none;fill-rule:nonzero;fill:#ffffff;fill-opacity:1;" d="M 179.265625 94.152344 L 179.265625 49.496094 L 186.4375 49.496094 L 186.4375 69.375 L 201 49.496094 L 210.691406 49.496094 L 197.257812 66.898438 L 211.402344 94.152344 L 202.09375 94.152344 L 192.265625 73.164062 L 186.4375 80.65625 L 186.4375 94.152344 Z M 179.265625 94.152344 "/><path style=" stroke:none;fill-rule:nonzero;fill:#ffffff;fill-opacity:1;" d="M 237.273438 94.152344 L 237.273438 49.496094 L 244.265625 49.496094 L 258.84375 79.316406 L 258.84375 49.496094 L 265.542969 49.496094 L 265.542969 94.152344 L 258.3125 94.152344 L 243.96875 65.03125 L 243.96875 94.152344 Z M 237.273438 94.152344 "/><path style=" stroke:none;fill-rule:nonzero;fill:#ffffff;fill-opacity:1;" d="M 277.253906 94.152344 L 277.253906 49.496094 L 303.6875 49.496094 L 303.6875 57.046875 L 284.425781 57.046875 L 284.425781 66.949219 L 302.324219 66.949219 L 302.324219 74.476562 L 284.425781 74.476562 L 284.425781 86.597656 L 304.339844 86.597656 L 304.339844 94.152344 Z M 277.253906 94.152344 "/><path style=" stroke:none;fill-rule:nonzero;fill:#ffffff;fill-opacity:1;" d="M 331.132812 77.765625 L 331.132812 70.207031 L 346.628906 70.207031 L 346.628906 88 C 345.070312 89.886719 342.855469 91.511719 339.992188 92.875 C 337.128906 94.234375 334.253906 94.914062 331.371094 94.914062 C 327.855469 94.914062 324.75 94.023438 322.066406 92.246094 C 319.378906 90.472656 317.25 87.8125 315.679688 84.265625 C 314.109375 80.722656 313.324219 76.554688 313.324219 71.761719 C 313.324219 66.84375 314.117188 62.640625 315.710938 59.148438 C 317.300781 55.65625 319.363281 53.046875 321.902344 51.320312 C 324.441406 49.59375 327.480469 48.730469 331.015625 48.730469 C 335.261719 48.730469 338.664062 49.84375 341.222656 52.066406 C 343.777344 54.292969 345.425781 57.554688 346.15625 61.859375 L 339.042969 63.535156 C 338.507812 61.242188 337.53125 59.484375 336.109375 58.265625 C 334.6875 57.046875 332.988281 56.4375 331.015625 56.4375 C 327.953125 56.4375 325.472656 57.660156 323.578125 60.109375 C 321.679688 62.554688 320.734375 66.289062 320.734375 71.300781 C 320.734375 76.683594 321.757812 80.777344 323.8125 83.578125 C 325.570312 85.996094 327.953125 87.203125 330.957031 87.203125 C 332.359375 87.203125 333.816406 86.867188 335.328125 86.1875 C 336.839844 85.507812 338.1875 84.582031 339.371094 83.410156 L 339.371094 77.761719 L 331.132812 77.761719 Z M 331.132812 77.765625 "/><path style=" stroke:none;fill-rule:nonzero;fill:#ffffff;fill-opacity:1;" d="M 357.425781 94.152344 L 357.425781 49.496094 L 383.859375 49.496094 L 383.859375 57.046875 L 364.597656 57.046875 L 364.597656 66.949219 L 382.496094 66.949219 L 382.496094 74.476562 L 364.597656 74.476562 L 364.597656 86.597656 L 384.507812 86.597656 L 384.507812 94.152344 Z M 357.425781 94.152344 "/><path style=" stroke:none;fill-rule:nonzero;fill:#ffffff;fill-opacity:1;" d="M 394.738281 94.152344 L 394.738281 49.496094 L 409.882812 49.496094 C 413.753906 49.496094 416.519531 49.894531 418.179688 50.695312 C 419.839844 51.5 421.203125 52.890625 422.269531 54.871094 C 423.335938 56.851562 423.871094 59.222656 423.871094 61.984375 C 423.871094 65.476562 423.054688 68.289062 421.425781 70.421875 C 419.796875 72.554688 417.480469 73.894531 414.476562 74.441406 C 416.019531 75.582031 417.292969 76.824219 418.300781 78.175781 C 419.308594 79.527344 420.679688 81.945312 422.417969 85.441406 L 426.746094 94.152344 L 418.164062 94.152344 L 412.960938 84.433594 C 411.085938 80.921875 409.816406 78.722656 409.140625 77.839844 C 408.46875 76.953125 407.761719 76.347656 407.007812 76.011719 C 406.257812 75.675781 405.054688 75.507812 403.394531 75.507812 L 401.910156 75.507812 L 401.910156 94.152344 Z M 401.910156 68.382812 L 407.246094 68.382812 C 410.503906 68.382812 412.578125 68.234375 413.464844 67.941406 C 414.355469 67.644531 415.078125 67.050781 415.628906 66.160156 C 416.183594 65.265625 416.457031 64.078125 416.457031 62.59375 C 416.457031 61.171875 416.183594 60.03125 415.628906 59.167969 C 415.078125 58.304688 414.324219 57.710938 413.378906 57.386719 C 412.707031 57.160156 410.761719 57.050781 407.539062 57.050781 L 401.910156 57.050781 Z M 401.910156 68.382812 "/><path style=" stroke:none;fill-rule:nonzero;fill:#ffffff;fill-opacity:1;" d="M 434.542969 94.152344 L 434.542969 49.496094 L 441.714844 49.496094 L 441.714844 94.152344 Z M 434.542969 94.152344 "/><path style=" stroke:none;fill-rule:nonzero;fill:#ffffff;fill-opacity:1;" d="M 482.5625 94.152344 L 482.5625 85.167969 L 467.984375 85.167969 L 467.984375 77.671875 L 483.421875 49.339844 L 489.171875 49.339844 L 489.171875 77.640625 L 493.585938 77.640625 L 493.585938 85.167969 L 489.171875 85.167969 L 489.171875 94.152344 Z M 482.5625 77.640625 L 482.5625 62.394531 L 474.386719 77.640625 Z M 482.5625 77.640625 "/><path style=" stroke:none;fill-rule:nonzero;fill:#ffffff;fill-opacity:1;" d="M 227.4375 543.414062 L 227.4375 528.527344 L 230.359375 528.527344 L 230.359375 535.140625 L 236.265625 528.527344 L 240.199219 528.527344 L 234.746094 534.328125 L 240.496094 543.414062 L 236.710938 543.414062 L 232.730469 536.429688 L 230.359375 538.917969 L 230.359375 543.414062 Z M 227.4375 543.414062 "/><path style=" stroke:none;fill-rule:nonzero;fill:#ffffff;fill-opacity:1;" d="M 242.828125 536.0625 C 242.828125 534.546875 243.050781 533.277344 243.492188 532.246094 C 243.820312 531.488281 244.269531 530.808594 244.839844 530.203125 C 245.410156 529.601562 246.03125 529.15625 246.710938 528.863281 C 247.613281 528.472656 248.652344 528.273438 249.832031 528.273438 C 251.964844 528.273438 253.671875 528.953125 254.953125 530.316406 C 256.234375 531.675781 256.875 533.566406 256.875 535.992188 C 256.875 538.394531 256.238281 540.273438 254.96875 541.632812 C 253.695312 542.988281 252 543.667969 249.871094 543.667969 C 247.71875 543.667969 246.007812 542.992188 244.734375 541.640625 C 243.464844 540.292969 242.828125 538.433594 242.828125 536.0625 Z M 245.84375 535.960938 C 245.84375 537.648438 246.21875 538.925781 246.976562 539.792969 C 247.734375 540.664062 248.695312 541.101562 249.863281 541.101562 C 251.027344 541.101562 251.984375 540.667969 252.730469 539.804688 C 253.480469 538.941406 253.851562 537.648438 253.851562 535.921875 C 253.851562 534.214844 253.488281 532.941406 252.761719 532.101562 C 252.035156 531.265625 251.066406 530.84375 249.863281 530.84375 C 248.65625 530.84375 247.683594 531.269531 246.949219 532.121094 C 246.210938 532.96875 245.84375 534.25 245.84375 535.960938 Z M 245.84375 535.960938 "/><path style=" stroke:none;fill-rule:nonzero;fill:#ffffff;fill-opacity:1;" d="M 263.832031 543.414062 L 263.832031 531.046875 L 259.535156 531.046875 L 259.535156 528.527344 L 271.042969 528.527344 L 271.042969 531.046875 L 266.753906 531.046875 L 266.753906 543.414062 Z M 263.832031 543.414062 "/><path style=" stroke:none;fill-rule:nonzero;fill:#ffffff;fill-opacity:1;" d="M 287.402344 543.414062 L 284.222656 543.414062 L 282.957031 540.035156 L 277.167969 540.035156 L 275.972656 543.414062 L 272.871094 543.414062 L 278.511719 528.527344 L 281.605469 528.527344 Z M 282.019531 537.527344 L 280.023438 532.003906 L 278.070312 537.527344 Z M 282.019531 537.527344 "/><path style=" stroke:none;fill-rule:nonzero;fill:#ffffff;fill-opacity:1;" d="M 297.414062 528.527344 L 303.203125 528.527344 C 304.351562 528.527344 305.203125 528.578125 305.765625 528.675781 C 306.332031 528.777344 306.832031 528.980469 307.28125 529.292969 C 307.722656 529.601562 308.09375 530.019531 308.390625 530.535156 C 308.6875 531.054688 308.835938 531.632812 308.835938 532.277344 C 308.835938 532.972656 308.652344 533.613281 308.285156 534.199219 C 307.921875 534.78125 307.425781 535.214844 306.800781 535.507812 C 307.683594 535.773438 308.359375 536.222656 308.835938 536.859375 C 309.308594 537.496094 309.546875 538.242188 309.546875 539.101562 C 309.546875 539.777344 309.394531 540.4375 309.085938 541.078125 C 308.78125 541.71875 308.363281 542.226562 307.832031 542.609375 C 307.300781 542.992188 306.648438 543.230469 305.871094 543.316406 C 305.386719 543.371094 304.207031 543.40625 302.34375 543.417969 L 297.414062 543.417969 Z M 300.339844 531.007812 L 300.339844 534.449219 L 302.257812 534.449219 C 303.394531 534.449219 304.105469 534.433594 304.378906 534.398438 C 304.878906 534.339844 305.273438 534.160156 305.558594 533.863281 C 305.84375 533.570312 305.988281 533.183594 305.988281 532.703125 C 305.988281 532.242188 305.867188 531.867188 305.621094 531.582031 C 305.371094 531.292969 305.003906 531.117188 304.519531 531.058594 C 304.226562 531.023438 303.394531 531.007812 302.019531 531.007812 Z M 300.339844 536.925781 L 300.339844 540.90625 L 303.046875 540.90625 C 304.097656 540.90625 304.769531 540.875 305.050781 540.816406 C 305.484375 540.734375 305.839844 540.535156 306.113281 540.222656 C 306.386719 539.90625 306.523438 539.484375 306.523438 538.957031 C 306.523438 538.511719 306.417969 538.132812 306.207031 537.820312 C 305.996094 537.507812 305.691406 537.28125 305.292969 537.140625 C 304.894531 537 304.03125 536.925781 302.703125 536.925781 Z M 300.339844 536.925781 "/><path style=" stroke:none;fill-rule:nonzero;fill:#ffffff;fill-opacity:1;" d="M 312.835938 536.0625 C 312.835938 534.546875 313.058594 533.277344 313.5 532.246094 C 313.828125 531.488281 314.277344 530.808594 314.847656 530.203125 C 315.417969 529.601562 316.039062 529.15625 316.71875 528.863281 C 317.621094 528.472656 318.664062 528.273438 319.839844 528.273438 C 321.972656 528.273438 323.679688 528.953125 324.960938 530.316406 C 326.242188 531.675781 326.882812 533.566406 326.882812 535.992188 C 326.882812 538.394531 326.246094 540.273438 324.976562 541.632812 C 323.707031 542.988281 322.007812 543.667969 319.878906 543.667969 C 317.726562 543.667969 316.015625 542.992188 314.746094 541.640625 C 313.472656 540.292969 312.835938 538.433594 312.835938 536.0625 Z M 315.851562 535.960938 C 315.851562 537.648438 316.230469 538.925781 316.988281 539.792969 C 317.746094 540.664062 318.707031 541.101562 319.871094 541.101562 C 321.039062 541.101562 321.992188 540.667969 322.742188 539.804688 C 323.488281 538.941406 323.863281 537.648438 323.863281 535.921875 C 323.863281 534.214844 323.5 532.941406 322.773438 532.101562 C 322.042969 531.265625 321.078125 530.84375 319.871094 530.84375 C 318.667969 530.84375 317.695312 531.269531 316.957031 532.121094 C 316.21875 532.96875 315.851562 534.25 315.851562 535.960938 Z M 315.851562 535.960938 "/><path style=" stroke:none;fill-rule:nonzero;fill:#ffffff;fill-opacity:1;" d="M 337.316406 537.941406 L 337.316406 535.433594 L 343.621094 535.433594 L 343.621094 541.363281 C 343.007812 541.972656 342.121094 542.511719 340.957031 542.976562 C 339.796875 543.4375 338.617188 543.671875 337.425781 543.671875 C 335.910156 543.671875 334.589844 543.34375 333.464844 542.691406 C 332.339844 542.039062 331.492188 541.101562 330.925781 539.886719 C 330.363281 538.671875 330.074219 537.351562 330.074219 535.921875 C 330.074219 534.371094 330.390625 532.992188 331.023438 531.789062 C 331.65625 530.585938 332.582031 529.660156 333.800781 529.015625 C 334.730469 528.523438 335.886719 528.277344 337.269531 528.277344 C 339.066406 528.277344 340.46875 528.664062 341.480469 529.4375 C 342.488281 530.214844 343.140625 531.285156 343.429688 532.652344 L 340.527344 533.210938 C 340.320312 532.480469 339.9375 531.902344 339.375 531.480469 C 338.8125 531.058594 338.109375 530.847656 337.269531 530.847656 C 335.988281 530.847656 334.972656 531.261719 334.21875 532.09375 C 333.46875 532.929688 333.089844 534.164062 333.089844 535.800781 C 333.089844 537.570312 333.472656 538.894531 334.234375 539.777344 C 335 540.660156 336 541.101562 337.238281 541.101562 C 337.851562 541.101562 338.464844 540.976562 339.078125 540.730469 C 339.695312 540.484375 340.222656 540.183594 340.664062 539.832031 L 340.664062 537.945312 Z M 337.316406 537.941406 "/><path style=" stroke:none;fill-rule:nonzero;fill:#ffffff;fill-opacity:1;" d="M 347.140625 536.0625 C 347.140625 534.546875 347.359375 533.277344 347.800781 532.246094 C 348.128906 531.488281 348.578125 530.808594 349.148438 530.203125 C 349.71875 529.601562 350.34375 529.15625 351.019531 528.863281 C 351.921875 528.472656 352.964844 528.273438 354.140625 528.273438 C 356.277344 528.273438 357.984375 528.953125 359.261719 530.316406 C 360.546875 531.675781 361.183594 533.566406 361.183594 535.992188 C 361.183594 538.394531 360.550781 540.273438 359.277344 541.632812 C 358.007812 542.988281 356.308594 543.667969 354.179688 543.667969 C 352.027344 543.667969 350.316406 542.992188 349.046875 541.640625 C 347.773438 540.292969 347.140625 538.433594 347.140625 536.0625 Z M 350.152344 535.960938 C 350.152344 537.648438 350.53125 538.925781 351.289062 539.792969 C 352.046875 540.664062 353.007812 541.101562 354.171875 541.101562 C 355.339844 541.101562 356.292969 540.667969 357.042969 539.804688 C 357.789062 538.941406 358.164062 537.648438 358.164062 535.921875 C 358.164062 534.214844 357.800781 532.941406 357.070312 532.101562 C 356.34375 531.265625 355.378906 530.84375 354.171875 530.84375 C 352.964844 530.84375 351.996094 531.269531 351.257812 532.121094 C 350.519531 532.96875 350.152344 534.25 350.152344 535.960938 Z M 350.152344 535.960938 "/><path style=" stroke:none;fill-rule:nonzero;fill:#ffffff;fill-opacity:1;" d="M 364.890625 543.414062 L 364.890625 528.527344 L 371.046875 528.527344 C 372.59375 528.527344 373.71875 528.660156 374.421875 528.929688 C 375.121094 529.199219 375.679688 529.671875 376.105469 530.355469 C 376.523438 531.039062 376.734375 531.820312 376.734375 532.703125 C 376.734375 533.820312 376.417969 534.742188 375.777344 535.46875 C 375.140625 536.199219 374.183594 536.65625 372.914062 536.84375 C 373.546875 537.222656 374.066406 537.640625 374.476562 538.09375 C 374.890625 538.546875 375.445312 539.351562 376.144531 540.511719 L 377.910156 543.414062 L 374.414062 543.414062 L 372.300781 540.175781 C 371.550781 539.015625 371.035156 538.289062 370.761719 537.988281 C 370.484375 537.6875 370.191406 537.480469 369.878906 537.367188 C 369.570312 537.253906 369.078125 537.199219 368.410156 537.199219 L 367.816406 537.199219 L 367.816406 543.414062 Z M 367.816406 534.824219 L 369.980469 534.824219 C 371.382812 534.824219 372.257812 534.765625 372.605469 534.640625 C 372.957031 534.519531 373.230469 534.308594 373.429688 534.011719 C 373.625 533.714844 373.722656 533.34375 373.722656 532.894531 C 373.722656 532.394531 373.59375 531.988281 373.335938 531.683594 C 373.074219 531.375 372.707031 531.179688 372.234375 531.097656 C 371.996094 531.0625 371.285156 531.046875 370.101562 531.046875 L 367.816406 531.046875 Z M 367.816406 534.824219 "/><path style="fill-rule:nonzero;fill:#000000;fill-opacity:1;stroke-width:0.55;stroke-linecap:butt;stroke-linejoin:miter;stroke:#000000;stroke-opacity:1;stroke-miterlimit:10;" d="M 535.649577 470.441738 L 515.648928 470.441738 C 509.047811 470.441738 503.647411 465.043397 503.647411 458.444797 L 503.647411 390.447103 C 503.647411 383.842868 509.047811 378.444527 515.648928 378.444527 L 535.649577 378.444527 C 542.250693 378.444527 547.651094 383.842868 547.651094 390.447103 L 547.651094 458.444797 C 547.651094 465.043397 542.250693 470.441738 535.649577 470.441738 Z M 535.649577 470.441738 " transform="matrix(0.692946,0,0,0.693211,11.683005,10.623107)"/><path style=" stroke:none;fill-rule:nonzero;fill:#f4f4f4;fill-opacity:1;" d="M 385.90625 285.652344 L 365.949219 285.652344 C 364.289062 285.652344 362.972656 284.332031 362.972656 282.671875 C 362.972656 281.007812 364.285156 279.6875 365.949219 279.6875 L 385.90625 279.6875 C 387.570312 279.6875 388.886719 281.003906 388.886719 282.671875 C 388.886719 284.332031 387.570312 285.652344 385.90625 285.652344 Z M 385.90625 285.652344 "/><path style=" stroke:none;fill-rule:nonzero;fill:#f4f4f4;fill-opacity:1;" d="M 385.90625 292.375 L 365.949219 292.375 C 364.289062 292.375 362.972656 291.058594 362.972656 289.394531 C 362.972656 287.730469 364.285156 286.414062 365.949219 286.414062 L 385.90625 286.414062 C 387.570312 286.414062 388.886719 287.730469 388.886719 289.394531 C 388.886719 290.988281 387.570312 292.375 385.90625 292.375 Z M 385.90625 292.375 "/><path style=" stroke:none;fill-rule:nonzero;fill:#f4f4f4;fill-opacity:1;" d="M 385.90625 299.03125 L 365.949219 299.03125 C 364.289062 299.03125 362.972656 297.710938 362.972656 296.046875 C 362.972656 294.386719 364.285156 293.066406 365.949219 293.066406 L 385.90625 293.066406 C 387.570312 293.066406 388.886719 294.382812 388.886719 296.046875 C 388.886719 297.710938 387.570312 299.03125 385.90625 299.03125 Z M 385.90625 299.03125 "/><path style="fill:none;stroke-width:1.493;stroke-linecap:butt;stroke-linejoin:miter;stroke:#f4f4f4;stroke-opacity:1;stroke-miterlimit:10;" d="M 533.451084 442.942878 C 533.451084 443.382409 533.400349 443.82194 533.29888 444.250201 C 533.197412 444.684097 533.050845 445.101088 532.853545 445.506809 C 532.661881 445.91253 532.419483 446.301345 532.137625 446.667621 C 531.85013 447.033897 531.528812 447.371998 531.162396 447.681924 C 530.801618 447.991849 530.407017 448.267965 529.984229 448.515905 C 529.555805 448.758211 529.104832 448.966706 528.636948 449.135757 C 528.163426 449.304807 527.672993 449.428777 527.171286 449.513303 C 526.669578 449.603463 526.162234 449.642908 525.649252 449.642908 C 525.136271 449.642908 524.628926 449.603463 524.127219 449.513303 C 523.625511 449.428777 523.135078 449.304807 522.661557 449.135757 C 522.188035 448.966706 521.742699 448.758211 521.314275 448.515905 C 520.891488 448.267965 520.496887 447.991849 520.130471 447.681924 C 519.769693 447.371998 519.448375 447.033897 519.160879 446.667621 C 518.879021 446.301345 518.636623 445.91253 518.439323 445.506809 C 518.247659 445.101088 518.095456 444.684097 517.999624 444.250201 C 517.898155 443.82194 517.847421 443.382409 517.847421 442.942878 C 517.847421 442.503347 517.898155 442.069451 517.999624 441.635555 C 518.095456 441.207294 518.247659 440.784668 518.439323 440.378948 C 518.636623 439.973227 518.879021 439.590046 519.160879 439.22377 C 519.448375 438.857494 519.769693 438.519393 520.130471 438.203833 C 520.496887 437.893907 520.891488 437.617791 521.314275 437.375486 C 521.742699 437.127545 522.188035 436.924685 522.661557 436.755635 C 523.135078 436.586584 523.625511 436.456979 524.127219 436.372454 C 524.628926 436.287929 525.136271 436.242848 525.649252 436.242848 C 526.162234 436.242848 526.669578 436.287929 527.171286 436.372454 C 527.672993 436.456979 528.163426 436.586584 528.636948 436.755635 C 529.104832 436.924685 529.555805 437.127545 529.984229 437.375486 C 530.407017 437.617791 530.801618 437.893907 531.162396 438.203833 C 531.528812 438.519393 531.85013 438.857494 532.137625 439.22377 C 532.419483 439.590046 532.661881 439.973227 532.853545 440.378948 C 533.050845 440.784668 533.197412 441.207294 533.29888 441.635555 C 533.400349 442.069451 533.451084 442.503347 533.451084 442.942878 Z M 533.451084 442.942878 " transform="matrix(0.692946,0,0,0.693211,11.683005,10.623107)"/><path style="fill-rule:nonzero;fill:#f4f4f4;fill-opacity:1;stroke-width:0.55;stroke-linecap:butt;stroke-linejoin:miter;stroke:#000000;stroke-opacity:1;stroke-miterlimit:10;" d="M 541.450216 460.743882 L 510.648765 460.743882 C 509.848288 460.743882 509.250749 460.140936 509.250749 459.346399 C 509.250749 458.546227 509.848288 457.943281 510.648765 457.943281 L 541.450216 457.943281 C 542.250693 457.943281 542.848232 458.546227 542.848232 459.346399 C 542.848232 460.146571 542.250693 460.743882 541.450216 460.743882 Z M 541.450216 460.743882 " transform="matrix(0.692946,0,0,0.693211,11.683005,10.623107)"/><path style="fill-rule:nonzero;fill:#f4f4f4;fill-opacity:1;stroke-width:0.55;stroke-linecap:butt;stroke-linejoin:miter;stroke:#000000;stroke-opacity:1;stroke-miterlimit:10;" d="M 541.450216 463.544483 L 510.648765 463.544483 C 509.848288 463.544483 509.250749 462.941537 509.250749 462.141365 C 509.250749 461.346829 509.848288 460.743882 510.648765 460.743882 L 541.450216 460.743882 C 542.250693 460.743882 542.848232 461.346829 542.848232 462.141365 C 542.848232 462.941537 542.250693 463.544483 541.450216 463.544483 Z M 541.450216 463.544483 " transform="matrix(0.692946,0,0,0.693211,11.683005,10.623107)"/></g></svg>