<svg xmlns="http://www.w3.org/2000/svg" xmlns:xlink="http://www.w3.org/1999/xlink" width="500" zoomAndPan="magnify" viewBox="0 0 375 374.999991" height="500" preserveAspectRatio="xMidYMid meet" version="1.2"><g id="bef7959261"><path style=" stroke:none;fill-rule:nonzero;fill:#2a04ce;fill-opacity:1;" d="M 21.671875 21.339844 L 353.761719 21.339844 L 353.761719 68.972656 L 21.671875 68.972656 Z M 21.671875 21.339844 "/><path style=" stroke:none;fill-rule:nonzero;fill:#2a04ce;fill-opacity:1;" d="M 21.457031 284.621094 L 21.457031 85.644531 L 353.457031 85.644531 L 353.675781 284.621094 L 187.457031 369.714844 Z M 21.457031 284.621094 "/><path style=" stroke:none;fill-rule:nonzero;fill:#0f0f0f;fill-opacity:1;" d="M 156.988281 170.519531 L 220.050781 170.519531 L 220.050781 211.226562 L 156.988281 211.226562 Z M 156.988281 170.519531 "/><path style=" stroke:none;fill-rule:nonzero;fill:#f4f4f4;fill-opacity:1;" d="M 160.628906 174.71875 L 216.453125 174.71875 L 216.453125 207.285156 L 160.628906 207.285156 Z M 160.628906 174.71875 "/><path style=" stroke:none;fill-rule:nonzero;fill:#f2f2f2;fill-opacity:1;" d="M 202.238281 209.101562 C 202.238281 209.269531 202.210938 209.429688 202.152344 209.582031 C 202.097656 209.738281 202.019531 209.875 201.917969 209.992188 C 201.816406 210.109375 201.699219 210.199219 201.566406 210.261719 C 201.433594 210.328125 201.296875 210.359375 201.152344 210.359375 C 201.007812 210.359375 200.871094 210.328125 200.738281 210.261719 C 200.605469 210.199219 200.488281 210.109375 200.386719 209.992188 C 200.285156 209.875 200.207031 209.738281 200.152344 209.582031 C 200.097656 209.429688 200.070312 209.269531 200.070312 209.101562 C 200.070312 208.9375 200.097656 208.777344 200.152344 208.621094 C 200.207031 208.46875 200.285156 208.332031 200.386719 208.214844 C 200.488281 208.097656 200.605469 208.007812 200.738281 207.941406 C 200.871094 207.878906 201.007812 207.847656 201.152344 207.847656 C 201.296875 207.847656 201.433594 207.878906 201.566406 207.941406 C 201.699219 208.007812 201.816406 208.097656 201.917969 208.214844 C 202.019531 208.332031 202.097656 208.46875 202.152344 208.621094 C 202.210938 208.777344 202.238281 208.9375 202.238281 209.101562 Z M 202.238281 209.101562 "/><path style=" stroke:none;fill-rule:nonzero;fill:#f2f2f2;fill-opacity:1;" d="M 208.519531 209.101562 C 208.519531 209.269531 208.492188 209.429688 208.4375 209.582031 C 208.382812 209.738281 208.304688 209.875 208.203125 209.992188 C 208.101562 210.109375 207.984375 210.199219 207.851562 210.261719 C 207.71875 210.328125 207.582031 210.359375 207.4375 210.359375 C 207.292969 210.359375 207.15625 210.328125 207.023438 210.261719 C 206.890625 210.199219 206.773438 210.109375 206.671875 209.992188 C 206.570312 209.875 206.492188 209.738281 206.4375 209.582031 C 206.382812 209.429688 206.355469 209.269531 206.355469 209.101562 C 206.355469 208.9375 206.382812 208.777344 206.4375 208.621094 C 206.492188 208.46875 206.570312 208.332031 206.671875 208.214844 C 206.773438 208.097656 206.890625 208.007812 207.023438 207.941406 C 207.15625 207.878906 207.292969 207.847656 207.4375 207.847656 C 207.582031 207.847656 207.71875 207.878906 207.851562 207.941406 C 207.984375 208.007812 208.101562 208.097656 208.203125 208.214844 C 208.304688 208.332031 208.382812 208.46875 208.4375 208.621094 C 208.492188 208.777344 208.519531 208.9375 208.519531 209.101562 Z M 208.519531 209.101562 "/><path style=" stroke:none;fill-rule:nonzero;fill:#db1f2a;fill-opacity:1;" d="M 220.875 99.503906 L 156.207031 99.503906 C 158.113281 97.207031 159.066406 92.964844 161.929688 92.574219 C 180.953125 89.890625 197.121094 89.976562 213.503906 92.574219 C 215.933594 92.964844 218.445312 97.207031 220.875 99.503906 Z M 220.875 99.503906 "/><path style=" stroke:none;fill-rule:nonzero;fill:#db1f2a;fill-opacity:1;" d="M 156.207031 101.234375 L 220.917969 101.234375 L 220.917969 107.296875 L 156.207031 107.296875 Z M 156.207031 101.234375 "/><path style=" stroke:none;fill-rule:nonzero;fill:#db1f2a;fill-opacity:1;" d="M 220.875 163.589844 C 214.417969 160.734375 203.277344 156.75 188.929688 156.664062 C 174.148438 156.578125 162.664062 160.691406 156.164062 163.589844 C 156.164062 145.535156 156.164062 127.519531 156.164062 109.460938 L 220.875 109.460938 Z M 220.875 163.589844 "/><path style=" stroke:none;fill-rule:nonzero;fill:#2a04ce;fill-opacity:1;" d="M 192.613281 132.414062 C 192.613281 132.929688 192.519531 133.425781 192.332031 133.90625 C 192.148438 134.382812 191.878906 134.804688 191.535156 135.167969 C 191.191406 135.535156 190.792969 135.816406 190.339844 136.015625 C 189.886719 136.210938 189.417969 136.3125 188.929688 136.3125 C 188.441406 136.3125 187.972656 136.210938 187.519531 136.015625 C 187.070312 135.816406 186.671875 135.535156 186.324219 135.167969 C 185.980469 134.804688 185.714844 134.382812 185.527344 133.90625 C 185.339844 133.425781 185.246094 132.929688 185.246094 132.414062 C 185.246094 131.898438 185.339844 131.398438 185.527344 130.921875 C 185.714844 130.445312 185.980469 130.023438 186.324219 129.65625 C 186.671875 129.292969 187.070312 129.011719 187.519531 128.8125 C 187.972656 128.613281 188.441406 128.515625 188.929688 128.515625 C 189.417969 128.515625 189.886719 128.613281 190.339844 128.8125 C 190.792969 129.011719 191.191406 129.292969 191.535156 129.65625 C 191.878906 130.023438 192.148438 130.445312 192.332031 130.921875 C 192.519531 131.398438 192.613281 131.898438 192.613281 132.414062 Z M 192.613281 132.414062 "/><path style=" stroke:none;fill-rule:nonzero;fill:#0f0f0f;fill-opacity:1;" d="M 198.726562 222.484375 L 179.65625 222.484375 L 181.824219 209.058594 L 196.558594 209.058594 Z M 198.726562 222.484375 "/><path style=" stroke:none;fill-rule:nonzero;fill:#db1f2a;fill-opacity:1;" d="M 183.597656 152.332031 L 194.261719 152.332031 L 194.261719 243.269531 L 183.597656 243.269531 Z M 183.597656 152.332031 "/><path style=" stroke:none;fill-rule:nonzero;fill:#db1f2a;fill-opacity:1;" d="M 162.75 221.183594 L 215.976562 221.183594 L 215.976562 246.734375 L 162.75 246.734375 Z M 162.75 221.183594 "/><path style=" stroke:none;fill-rule:nonzero;fill:#db1f2a;fill-opacity:1;" d="M 209.820312 235.042969 C 209.820312 235.59375 209.789062 236.144531 209.722656 236.695312 C 209.65625 237.246094 209.554688 237.792969 209.421875 238.335938 C 209.292969 238.878906 209.128906 239.414062 208.929688 239.945312 C 208.734375 240.472656 208.507812 240.992188 208.246094 241.503906 C 207.988281 242.015625 207.699219 242.515625 207.378906 243.003906 C 207.058594 243.488281 206.710938 243.964844 206.335938 244.425781 C 205.960938 244.882812 205.558594 245.328125 205.128906 245.753906 C 204.699219 246.183594 204.246094 246.59375 203.765625 246.984375 C 203.285156 247.375 202.785156 247.746094 202.261719 248.097656 C 201.738281 248.445312 201.195312 248.777344 200.632812 249.082031 C 200.070312 249.390625 199.488281 249.675781 198.890625 249.933594 C 198.296875 250.195312 197.683594 250.433594 197.058594 250.644531 C 196.433594 250.855469 195.796875 251.042969 195.148438 251.203125 C 194.5 251.363281 193.84375 251.496094 193.179688 251.605469 C 192.515625 251.714844 191.847656 251.792969 191.171875 251.847656 C 190.5 251.902344 189.824219 251.929688 189.148438 251.929688 C 188.46875 251.929688 187.792969 251.902344 187.121094 251.847656 C 186.445312 251.792969 185.777344 251.714844 185.113281 251.605469 C 184.449219 251.496094 183.792969 251.363281 183.144531 251.203125 C 182.496094 251.042969 181.859375 250.855469 181.234375 250.644531 C 180.609375 250.433594 180 250.195312 179.402344 249.933594 C 178.804688 249.675781 178.222656 249.390625 177.660156 249.082031 C 177.097656 248.777344 176.554688 248.445312 176.03125 248.097656 C 175.507812 247.746094 175.007812 247.375 174.527344 246.984375 C 174.050781 246.59375 173.59375 246.183594 173.164062 245.753906 C 172.734375 245.328125 172.332031 244.882812 171.957031 244.425781 C 171.582031 243.964844 171.234375 243.488281 170.914062 243.003906 C 170.59375 242.515625 170.304688 242.015625 170.046875 241.503906 C 169.789062 240.992188 169.558594 240.472656 169.363281 239.945312 C 169.167969 239.414062 169.003906 238.878906 168.871094 238.335938 C 168.738281 237.792969 168.636719 237.246094 168.570312 236.695312 C 168.507812 236.144531 168.472656 235.59375 168.472656 235.042969 C 168.472656 234.488281 168.507812 233.9375 168.570312 233.386719 C 168.636719 232.835938 168.738281 232.289062 168.871094 231.746094 C 169.003906 231.203125 169.167969 230.667969 169.363281 230.140625 C 169.558594 229.609375 169.789062 229.089844 170.046875 228.578125 C 170.304688 228.066406 170.59375 227.566406 170.914062 227.078125 C 171.234375 226.59375 171.582031 226.117188 171.957031 225.660156 C 172.332031 225.199219 172.734375 224.753906 173.164062 224.328125 C 173.59375 223.898438 174.050781 223.492188 174.527344 223.097656 C 175.007812 222.707031 175.507812 222.335938 176.03125 221.984375 C 176.554688 221.636719 177.097656 221.304688 177.660156 221 C 178.222656 220.691406 178.804688 220.40625 179.402344 220.148438 C 180 219.886719 180.609375 219.648438 181.234375 219.4375 C 181.859375 219.226562 182.496094 219.039062 183.144531 218.878906 C 183.792969 218.71875 184.449219 218.585938 185.113281 218.476562 C 185.777344 218.371094 186.445312 218.289062 187.121094 218.234375 C 187.792969 218.179688 188.46875 218.152344 189.148438 218.152344 C 189.824219 218.152344 190.5 218.179688 191.171875 218.234375 C 191.847656 218.289062 192.515625 218.371094 193.179688 218.476562 C 193.84375 218.585938 194.5 218.71875 195.148438 218.878906 C 195.796875 219.039062 196.433594 219.226562 197.058594 219.4375 C 197.683594 219.648438 198.296875 219.886719 198.890625 220.148438 C 199.488281 220.40625 200.070312 220.691406 200.632812 221 C 201.195312 221.304688 201.738281 221.636719 202.261719 221.984375 C 202.785156 222.335938 203.285156 222.707031 203.765625 223.097656 C 204.246094 223.492188 204.699219 223.898438 205.128906 224.328125 C 205.558594 224.753906 205.960938 225.199219 206.335938 225.660156 C 206.710938 226.117188 207.058594 226.59375 207.378906 227.078125 C 207.699219 227.566406 207.988281 228.066406 208.246094 228.578125 C 208.507812 229.089844 208.734375 229.609375 208.929688 230.140625 C 209.128906 230.667969 209.292969 231.203125 209.421875 231.746094 C 209.554688 232.289062 209.65625 232.835938 209.722656 233.386719 C 209.789062 233.9375 209.820312 234.488281 209.820312 235.042969 Z M 209.820312 235.042969 "/><path style=" stroke:none;fill-rule:nonzero;fill:#2a04ce;fill-opacity:1;" d="M 197.164062 235.042969 C 197.164062 235.582031 197.113281 236.117188 197.015625 236.644531 C 196.914062 237.175781 196.765625 237.691406 196.570312 238.191406 C 196.375 238.6875 196.136719 239.164062 195.851562 239.613281 C 195.566406 240.0625 195.242188 240.476562 194.878906 240.859375 C 194.519531 241.242188 194.125 241.582031 193.699219 241.882812 C 193.273438 242.183594 192.824219 242.4375 192.347656 242.644531 C 191.875 242.847656 191.386719 243.003906 190.886719 243.109375 C 190.382812 243.214844 189.875 243.269531 189.363281 243.269531 C 188.851562 243.269531 188.34375 243.214844 187.839844 243.109375 C 187.339844 243.003906 186.851562 242.847656 186.378906 242.644531 C 185.90625 242.4375 185.453125 242.183594 185.027344 241.882812 C 184.601562 241.582031 184.210938 241.242188 183.847656 240.859375 C 183.484375 240.476562 183.160156 240.0625 182.875 239.613281 C 182.59375 239.164062 182.351562 238.6875 182.15625 238.191406 C 181.960938 237.691406 181.8125 237.175781 181.710938 236.644531 C 181.613281 236.117188 181.5625 235.582031 181.5625 235.042969 C 181.5625 234.5 181.613281 233.964844 181.710938 233.4375 C 181.8125 232.90625 181.960938 232.390625 182.15625 231.894531 C 182.351562 231.394531 182.59375 230.917969 182.875 230.46875 C 183.160156 230.019531 183.484375 229.605469 183.847656 229.222656 C 184.210938 228.839844 184.601562 228.5 185.027344 228.199219 C 185.453125 227.898438 185.90625 227.648438 186.378906 227.441406 C 186.851562 227.234375 187.339844 227.078125 187.839844 226.972656 C 188.34375 226.867188 188.851562 226.8125 189.363281 226.8125 C 189.875 226.8125 190.382812 226.867188 190.886719 226.972656 C 191.386719 227.078125 191.875 227.234375 192.347656 227.441406 C 192.824219 227.648438 193.273438 227.898438 193.699219 228.199219 C 194.125 228.5 194.519531 228.839844 194.878906 229.222656 C 195.242188 229.605469 195.566406 230.019531 195.851562 230.46875 C 196.136719 230.917969 196.375 231.394531 196.570312 231.894531 C 196.765625 232.390625 196.914062 232.90625 197.015625 233.4375 C 197.113281 233.964844 197.164062 234.5 197.164062 235.042969 Z M 197.164062 235.042969 "/><path style=" stroke:none;fill-rule:nonzero;fill:#db1f2a;fill-opacity:1;" d="M 193.046875 235.042969 C 193.046875 235.558594 192.953125 236.054688 192.765625 236.53125 C 192.582031 237.011719 192.3125 237.429688 191.96875 237.796875 C 191.625 238.164062 191.226562 238.445312 190.773438 238.640625 C 190.320312 238.839844 189.851562 238.9375 189.363281 238.9375 C 188.875 238.9375 188.40625 238.839844 187.953125 238.640625 C 187.503906 238.445312 187.105469 238.164062 186.757812 237.796875 C 186.414062 237.429688 186.148438 237.011719 185.960938 236.53125 C 185.773438 236.054688 185.679688 235.558594 185.679688 235.042969 C 185.679688 234.523438 185.773438 234.027344 185.960938 233.550781 C 186.148438 233.074219 186.414062 232.652344 186.757812 232.285156 C 187.105469 231.921875 187.503906 231.636719 187.953125 231.441406 C 188.40625 231.242188 188.875 231.144531 189.363281 231.144531 C 189.851562 231.144531 190.320312 231.242188 190.773438 231.441406 C 191.226562 231.636719 191.625 231.921875 191.96875 232.285156 C 192.3125 232.652344 192.582031 233.074219 192.765625 233.550781 C 192.953125 234.027344 193.046875 234.523438 193.046875 235.042969 Z M 193.046875 235.042969 "/><path style=" stroke:none;fill-rule:nonzero;fill:#db1f2a;fill-opacity:1;" d="M 245.449219 163.160156 L 228.242188 163.160156 C 230.84375 156.316406 233.875 145.96875 234.398438 133.019531 C 235.089844 116.132812 231.144531 102.792969 228.242188 95.171875 C 233.964844 95.171875 239.726562 95.171875 245.449219 95.171875 C 247.445312 105.261719 249.046875 118.125 248.742188 133.019531 C 248.484375 144.582031 247.09375 154.757812 245.449219 163.160156 Z M 245.449219 163.160156 "/><path style=" stroke:none;fill-rule:nonzero;fill:#db1f2a;fill-opacity:1;" d="M 338.417969 107.296875 L 236.433594 107.296875 C 233.746094 107.296875 231.535156 104.960938 231.535156 102.101562 L 231.535156 97.339844 C 231.535156 94.480469 233.746094 95.171875 236.433594 95.171875 L 338.375 95.171875 C 341.0625 95.171875 343.273438 97.511719 343.273438 100.371094 L 343.273438 102.101562 C 343.316406 104.957031 341.105469 107.296875 338.417969 107.296875 Z M 338.417969 107.296875 "/><path style=" stroke:none;fill-rule:nonzero;fill:#db1f2a;fill-opacity:1;" d="M 318.480469 125.917969 L 241.246094 125.917969 C 238.382812 125.917969 236.042969 123.578125 236.042969 120.722656 L 236.042969 118.988281 C 236.042969 116.128906 238.382812 113.792969 241.246094 113.792969 L 318.480469 113.792969 C 321.339844 113.792969 323.679688 116.128906 323.679688 118.988281 L 323.679688 120.722656 C 323.679688 123.578125 321.339844 125.917969 318.480469 125.917969 Z M 318.480469 125.917969 "/><path style=" stroke:none;fill-rule:nonzero;fill:#db1f2a;fill-opacity:1;" d="M 295.117188 144.539062 L 241.246094 144.539062 C 238.382812 144.539062 236.042969 142.199219 236.042969 139.339844 L 236.042969 137.609375 C 236.042969 134.75 238.382812 132.414062 241.246094 132.414062 L 295.117188 132.414062 C 297.980469 132.414062 300.320312 134.75 300.320312 137.609375 L 300.320312 139.339844 C 300.320312 142.199219 297.980469 144.539062 295.117188 144.539062 Z M 295.117188 144.539062 "/><path style=" stroke:none;fill-rule:nonzero;fill:#db1f2a;fill-opacity:1;" d="M 278.347656 163.160156 L 237.171875 163.160156 C 234.308594 163.160156 231.96875 160.820312 231.96875 157.960938 L 231.96875 156.230469 C 231.96875 153.371094 234.308594 151.035156 237.171875 151.035156 L 278.347656 151.035156 C 281.207031 151.035156 283.546875 153.371094 283.546875 156.230469 L 283.546875 157.960938 C 283.546875 160.820312 281.207031 163.160156 278.347656 163.160156 Z M 278.347656 163.160156 "/><path style=" stroke:none;fill-rule:nonzero;fill:#db1f2a;fill-opacity:1;" d="M 129.984375 163.160156 L 147.191406 163.160156 C 144.589844 156.316406 141.558594 145.96875 141.039062 133.019531 C 140.34375 116.132812 144.289062 102.792969 147.191406 95.171875 C 141.472656 95.171875 135.707031 95.171875 129.984375 95.171875 C 127.992188 105.261719 126.386719 118.125 126.691406 133.019531 C 126.953125 144.582031 128.339844 154.757812 129.984375 163.160156 Z M 129.984375 163.160156 "/><path style=" stroke:none;fill-rule:nonzero;fill:#db1f2a;fill-opacity:1;" d="M 37.015625 107.296875 L 138.957031 107.296875 C 141.644531 107.296875 143.855469 104.960938 143.855469 102.101562 L 143.855469 97.339844 C 143.855469 94.480469 141.644531 95.171875 138.957031 95.171875 L 37.015625 95.171875 C 34.328125 95.171875 32.117188 97.511719 32.117188 100.371094 L 32.117188 102.101562 C 32.117188 104.957031 34.328125 107.296875 37.015625 107.296875 Z M 37.015625 107.296875 "/><path style=" stroke:none;fill-rule:nonzero;fill:#db1f2a;fill-opacity:1;" d="M 56.953125 125.917969 L 134.191406 125.917969 C 137.050781 125.917969 139.390625 123.578125 139.390625 120.722656 L 139.390625 118.988281 C 139.390625 116.128906 137.050781 113.792969 134.191406 113.792969 L 56.953125 113.792969 C 54.09375 113.792969 51.753906 116.128906 51.753906 118.988281 L 51.753906 120.722656 C 51.753906 123.578125 54.09375 125.917969 56.953125 125.917969 Z M 56.953125 125.917969 "/><path style=" stroke:none;fill-rule:nonzero;fill:#db1f2a;fill-opacity:1;" d="M 80.316406 144.539062 L 134.191406 144.539062 C 137.050781 144.539062 139.390625 142.199219 139.390625 139.339844 L 139.390625 137.609375 C 139.390625 134.75 137.050781 132.414062 134.191406 132.414062 L 80.316406 132.414062 C 77.453125 132.414062 75.113281 134.75 75.113281 137.609375 L 75.113281 139.339844 C 75.113281 142.199219 77.453125 144.539062 80.316406 144.539062 Z M 80.316406 144.539062 "/><path style=" stroke:none;fill-rule:nonzero;fill:#db1f2a;fill-opacity:1;" d="M 97.089844 163.160156 L 138.261719 163.160156 C 141.125 163.160156 143.464844 160.820312 143.464844 157.960938 L 143.464844 156.230469 C 143.464844 153.371094 141.125 151.035156 138.261719 151.035156 L 97.089844 151.035156 C 94.226562 151.035156 91.886719 153.371094 91.886719 156.230469 L 91.886719 157.960938 C 91.886719 160.820312 94.226562 163.160156 97.089844 163.160156 Z M 97.089844 163.160156 "/><path style=" stroke:none;fill-rule:nonzero;fill:#ff9028;fill-opacity:1;" d="M 252.816406 238.503906 C 245.230469 268.339844 221.132812 289.90625 193.4375 292.199219 C 161.796875 294.84375 131.457031 271.847656 123.007812 237.207031 L 148.015625 237.207031 C 151.179688 259.636719 169.773438 275.789062 190.1875 274.878906 C 208.953125 274.058594 225.25 258.945312 228.675781 238.503906 Z M 252.816406 238.503906 "/><path style=" stroke:none;fill-rule:nonzero;fill:#ff9028;fill-opacity:1;" d="M 243.800781 238.503906 L 261.832031 238.503906 L 261.832031 245 L 243.800781 245 Z M 243.800781 238.503906 "/><path style=" stroke:none;fill-rule:nonzero;fill:#ff9028;fill-opacity:1;" d="M 240.117188 250.195312 C 241.332031 249.332031 257.714844 257.992188 257.714844 257.992188 L 256.066406 264.921875 L 233.964844 264.921875 Z M 240.117188 250.195312 "/><path style=" stroke:none;fill-rule:nonzero;fill:#ff9028;fill-opacity:1;" d="M 225.382812 272.28125 C 226.203125 271.847656 236.867188 285.273438 236.867188 285.273438 L 228.285156 292.203125 L 214.328125 282.242188 Z M 225.382812 272.28125 "/><path style=" stroke:none;fill-rule:nonzero;fill:#ff9028;fill-opacity:1;" d="M 112.996094 237.207031 L 131.027344 237.207031 L 131.027344 243.703125 L 112.996094 243.703125 Z M 112.996094 237.207031 "/><path style=" stroke:none;fill-rule:nonzero;fill:#ff9028;fill-opacity:1;" d="M 134.710938 248.898438 C 133.496094 248.03125 117.113281 256.691406 117.113281 256.691406 L 118.757812 263.621094 L 140.863281 263.621094 Z M 134.710938 248.898438 "/><path style=" stroke:none;fill-rule:nonzero;fill:#ff9028;fill-opacity:1;" d="M 149.445312 270.984375 C 148.621094 270.550781 137.960938 283.972656 137.960938 283.972656 L 146.542969 290.902344 L 160.453125 280.941406 Z M 149.445312 270.984375 "/><path style=" stroke:none;fill-rule:nonzero;fill:#ff9028;fill-opacity:1;" d="M 194.261719 288.304688 L 194.261719 300.429688 L 183.597656 300.429688 L 183.597656 286.136719 Z M 194.261719 288.304688 "/><path style=" stroke:none;fill-rule:nonzero;fill:#ffffff;fill-opacity:1;" d="M 107.445312 323.378906 C 113.082031 319.480469 129.464844 309.261719 152.089844 310.386719 C 170.640625 311.296875 183.945312 319.351562 189.753906 323.378906 L 189.753906 310.386719 C 182.734375 306.230469 165.136719 297.136719 141.859375 299.128906 C 126.085938 300.472656 114.164062 306.363281 107.445312 310.386719 Z M 107.445312 323.378906 "/><path style=" stroke:none;fill-rule:nonzero;fill:#ffffff;fill-opacity:1;" d="M 271.238281 323.378906 C 265.601562 319.480469 249.21875 309.261719 226.59375 310.386719 C 208.042969 311.296875 194.738281 319.351562 188.929688 323.378906 L 188.929688 310.386719 C 195.953125 306.230469 213.550781 297.136719 236.824219 299.128906 C 252.601562 300.472656 264.519531 306.363281 271.238281 310.386719 Z M 271.238281 323.378906 "/><path style=" stroke:none;fill-rule:nonzero;fill:#ffffff;fill-opacity:1;" d="M 59.085938 49.722656 L 63.480469 49.191406 C 63.972656 52.753906 65.59375 54.539062 68.335938 54.539062 C 69.695312 54.539062 70.765625 54.171875 71.542969 53.445312 C 72.320312 52.714844 72.710938 51.8125 72.710938 50.734375 C 72.710938 50.101562 72.574219 49.5625 72.300781 49.117188 C 72.03125 48.675781 71.617188 48.308594 71.058594 48.023438 C 70.503906 47.738281 69.15625 47.261719 67.019531 46.589844 C 65.105469 45.996094 63.703125 45.347656 62.8125 44.652344 C 61.921875 43.953125 61.214844 43.039062 60.691406 41.902344 C 60.164062 40.769531 59.902344 39.546875 59.902344 38.242188 C 59.902344 36.722656 60.238281 35.351562 60.914062 34.136719 C 61.585938 32.917969 62.515625 32 63.703125 31.378906 C 64.890625 30.757812 66.355469 30.449219 68.097656 30.449219 C 70.714844 30.449219 72.761719 31.175781 74.230469 32.636719 C 75.703125 34.09375 76.480469 36.183594 76.566406 38.898438 L 72.0625 39.144531 C 71.863281 37.648438 71.4375 36.601562 70.785156 36.003906 C 70.128906 35.40625 69.195312 35.109375 67.984375 35.109375 C 66.773438 35.109375 65.839844 35.371094 65.1875 35.886719 C 64.53125 36.40625 64.203125 37.050781 64.203125 37.824219 C 64.203125 38.582031 64.5 39.222656 65.097656 39.738281 C 65.691406 40.257812 67.054688 40.828125 69.191406 41.449219 C 71.453125 42.121094 73.085938 42.828125 74.09375 43.570312 C 75.101562 44.3125 75.871094 45.269531 76.398438 46.445312 C 76.929688 47.617188 77.195312 49.042969 77.195312 50.714844 C 77.195312 53.140625 76.472656 55.175781 75.019531 56.824219 C 73.566406 58.472656 71.296875 59.296875 68.207031 59.296875 C 62.742188 59.292969 59.703125 56.105469 59.085938 49.722656 Z M 59.085938 49.722656 "/><path style=" stroke:none;fill-rule:nonzero;fill:#ffffff;fill-opacity:1;" d="M 83.5 58.820312 L 83.5 30.921875 L 90.230469 30.921875 L 94.28125 49.96875 L 98.300781 30.921875 L 105.058594 30.921875 L 105.058594 58.820312 L 100.871094 58.820312 L 100.871094 36.839844 L 96.425781 58.820312 L 92.101562 58.820312 L 87.691406 36.839844 L 87.691406 58.820312 Z M 83.5 58.820312 "/><path style=" stroke:none;fill-rule:nonzero;fill:#ffffff;fill-opacity:1;" d="M 112.125 58.820312 L 112.125 30.921875 L 116.609375 30.921875 L 116.609375 43.339844 L 125.71875 30.921875 L 131.78125 30.921875 L 123.378906 41.792969 L 132.222656 58.820312 L 126.402344 58.820312 L 120.253906 45.707031 L 116.609375 50.386719 L 116.609375 58.820312 Z M 112.125 58.820312 "/><path style=" stroke:none;fill-rule:nonzero;fill:#ffffff;fill-opacity:1;" d="M 148.40625 58.820312 L 148.40625 30.921875 L 152.78125 30.921875 L 161.898438 49.550781 L 161.898438 30.921875 L 166.085938 30.921875 L 166.085938 58.820312 L 161.566406 58.820312 L 152.59375 40.625 L 152.59375 58.820312 Z M 148.40625 58.820312 "/><path style=" stroke:none;fill-rule:nonzero;fill:#ffffff;fill-opacity:1;" d="M 173.414062 58.820312 L 173.414062 30.921875 L 189.945312 30.921875 L 189.945312 35.640625 L 177.898438 35.640625 L 177.898438 41.824219 L 189.09375 41.824219 L 189.09375 46.527344 L 177.898438 46.527344 L 177.898438 54.101562 L 190.355469 54.101562 L 190.355469 58.820312 Z M 173.414062 58.820312 "/><path style=" stroke:none;fill-rule:nonzero;fill:#ffffff;fill-opacity:1;" d="M 207.113281 48.582031 L 207.113281 43.863281 L 216.808594 43.863281 L 216.808594 54.976562 C 215.832031 56.15625 214.445312 57.167969 212.65625 58.019531 C 210.863281 58.871094 209.066406 59.292969 207.261719 59.292969 C 205.0625 59.292969 203.121094 58.738281 201.441406 57.628906 C 199.761719 56.519531 198.429688 54.855469 197.449219 52.644531 C 196.464844 50.429688 195.976562 47.824219 195.976562 44.832031 C 195.976562 41.761719 196.472656 39.136719 197.464844 36.953125 C 198.460938 34.769531 199.75 33.140625 201.339844 32.0625 C 202.929688 30.984375 204.828125 30.445312 207.039062 30.445312 C 209.695312 30.445312 211.824219 31.140625 213.425781 32.527344 C 215.023438 33.917969 216.050781 35.957031 216.511719 38.648438 L 212.0625 39.695312 C 211.726562 38.257812 211.117188 37.164062 210.226562 36.402344 C 209.339844 35.640625 208.273438 35.257812 207.039062 35.257812 C 205.125 35.257812 203.574219 36.023438 202.386719 37.550781 C 201.203125 39.082031 200.609375 41.410156 200.609375 44.542969 C 200.609375 47.90625 201.25 50.464844 202.535156 52.214844 C 203.636719 53.722656 205.125 54.476562 207.003906 54.476562 C 207.878906 54.476562 208.792969 54.265625 209.738281 53.84375 C 210.683594 53.417969 211.527344 52.839844 212.265625 52.105469 L 212.265625 48.578125 L 207.113281 48.578125 Z M 207.113281 48.582031 "/><path style=" stroke:none;fill-rule:nonzero;fill:#ffffff;fill-opacity:1;" d="M 223.558594 58.820312 L 223.558594 30.921875 L 240.09375 30.921875 L 240.09375 35.640625 L 228.042969 35.640625 L 228.042969 41.824219 L 239.238281 41.824219 L 239.238281 46.527344 L 228.042969 46.527344 L 228.042969 54.101562 L 240.5 54.101562 L 240.5 58.820312 Z M 223.558594 58.820312 "/><path style=" stroke:none;fill-rule:nonzero;fill:#ffffff;fill-opacity:1;" d="M 246.898438 58.820312 L 246.898438 30.921875 L 256.371094 30.921875 C 258.792969 30.921875 260.523438 31.171875 261.558594 31.671875 C 262.597656 32.175781 263.449219 33.042969 264.117188 34.28125 C 264.785156 35.515625 265.121094 37 265.121094 38.722656 C 265.121094 40.90625 264.609375 42.664062 263.589844 43.996094 C 262.570312 45.328125 261.121094 46.164062 259.246094 46.507812 C 260.207031 47.21875 261.003906 47.996094 261.636719 48.839844 C 262.265625 49.679688 263.125 51.195312 264.210938 53.375 L 266.917969 58.820312 L 261.550781 58.820312 L 258.296875 52.746094 C 257.125 50.554688 256.328125 49.179688 255.90625 48.628906 C 255.488281 48.074219 255.042969 47.695312 254.574219 47.484375 C 254.101562 47.277344 253.351562 47.171875 252.3125 47.171875 L 251.382812 47.171875 L 251.382812 58.816406 L 246.898438 58.816406 Z M 251.382812 42.71875 L 254.71875 42.71875 C 256.757812 42.71875 258.054688 42.628906 258.613281 42.445312 C 259.167969 42.261719 259.621094 41.890625 259.964844 41.332031 C 260.3125 40.773438 260.484375 40.03125 260.484375 39.105469 C 260.484375 38.21875 260.3125 37.503906 259.964844 36.964844 C 259.621094 36.425781 259.148438 36.054688 258.554688 35.851562 C 258.136719 35.710938 256.917969 35.640625 254.90625 35.640625 L 251.382812 35.640625 Z M 251.382812 42.71875 "/><path style=" stroke:none;fill-rule:nonzero;fill:#ffffff;fill-opacity:1;" d="M 271.796875 58.820312 L 271.796875 30.921875 L 276.28125 30.921875 L 276.28125 58.820312 Z M 271.796875 58.820312 "/><path style=" stroke:none;fill-rule:nonzero;fill:#ffffff;fill-opacity:1;" d="M 301.832031 58.820312 L 301.832031 53.207031 L 292.710938 53.207031 L 292.710938 48.523438 L 302.371094 30.828125 L 305.964844 30.828125 L 305.964844 48.503906 L 308.726562 48.503906 L 308.726562 53.207031 L 305.964844 53.207031 L 305.964844 58.820312 Z M 301.832031 48.503906 L 301.832031 38.980469 L 296.714844 48.503906 Z M 301.832031 48.503906 "/><path style=" stroke:none;fill-rule:nonzero;fill:#ffffff;fill-opacity:1;" d="M 142.253906 339.464844 L 142.253906 330.164062 L 144.082031 330.164062 L 144.082031 334.292969 L 147.777344 330.164062 L 150.234375 330.164062 L 146.824219 333.789062 L 150.421875 339.464844 L 148.054688 339.464844 L 145.566406 335.101562 L 144.082031 336.65625 L 144.082031 339.464844 Z M 142.253906 339.464844 "/><path style=" stroke:none;fill-rule:nonzero;fill:#ffffff;fill-opacity:1;" d="M 151.882812 334.871094 C 151.882812 333.925781 152.019531 333.132812 152.296875 332.488281 C 152.5 332.011719 152.78125 331.589844 153.136719 331.210938 C 153.496094 330.835938 153.886719 330.558594 154.308594 330.375 C 154.871094 330.128906 155.523438 330.007812 156.261719 330.007812 C 157.597656 330.007812 158.664062 330.429688 159.464844 331.28125 C 160.265625 332.132812 160.667969 333.3125 160.667969 334.828125 C 160.667969 336.328125 160.269531 337.503906 159.472656 338.351562 C 158.679688 339.199219 157.617188 339.625 156.285156 339.625 C 154.941406 339.625 153.867188 339.203125 153.074219 338.355469 C 152.277344 337.515625 151.882812 336.351562 151.882812 334.871094 Z M 153.765625 334.808594 C 153.765625 335.863281 154 336.660156 154.476562 337.203125 C 154.949219 337.746094 155.550781 338.019531 156.28125 338.019531 C 157.007812 338.019531 157.609375 337.75 158.074219 337.210938 C 158.542969 336.671875 158.777344 335.863281 158.777344 334.785156 C 158.777344 333.71875 158.550781 332.921875 158.09375 332.398438 C 157.636719 331.875 157.035156 331.613281 156.28125 331.613281 C 155.527344 331.613281 154.917969 331.878906 154.457031 332.410156 C 153.996094 332.9375 153.765625 333.738281 153.765625 334.808594 Z M 153.765625 334.808594 "/><path style=" stroke:none;fill-rule:nonzero;fill:#ffffff;fill-opacity:1;" d="M 165.019531 339.464844 L 165.019531 331.738281 L 162.332031 331.738281 L 162.332031 330.164062 L 169.527344 330.164062 L 169.527344 331.738281 L 166.847656 331.738281 L 166.847656 339.464844 Z M 165.019531 339.464844 "/><path style=" stroke:none;fill-rule:nonzero;fill:#ffffff;fill-opacity:1;" d="M 179.761719 339.464844 L 177.773438 339.464844 L 176.980469 337.351562 L 173.359375 337.351562 L 172.613281 339.464844 L 170.671875 339.464844 L 174.199219 330.164062 L 176.132812 330.164062 Z M 176.394531 335.785156 L 175.148438 332.335938 L 173.921875 335.785156 Z M 176.394531 335.785156 "/><path style=" stroke:none;fill-rule:nonzero;fill:#ffffff;fill-opacity:1;" d="M 186.023438 330.164062 L 189.644531 330.164062 C 190.363281 330.164062 190.894531 330.195312 191.246094 330.257812 C 191.601562 330.320312 191.914062 330.449219 192.195312 330.640625 C 192.472656 330.835938 192.703125 331.097656 192.890625 331.417969 C 193.074219 331.742188 193.167969 332.105469 193.167969 332.507812 C 193.167969 332.941406 193.050781 333.34375 192.824219 333.707031 C 192.597656 334.070312 192.285156 334.34375 191.894531 334.523438 C 192.445312 334.691406 192.871094 334.972656 193.167969 335.367188 C 193.464844 335.765625 193.613281 336.234375 193.613281 336.769531 C 193.613281 337.195312 193.515625 337.605469 193.324219 338.003906 C 193.132812 338.40625 192.871094 338.722656 192.539062 338.960938 C 192.207031 339.203125 191.800781 339.347656 191.3125 339.402344 C 191.007812 339.4375 190.273438 339.457031 189.105469 339.464844 L 186.023438 339.464844 Z M 187.851562 331.714844 L 187.851562 333.863281 L 189.050781 333.863281 C 189.765625 333.863281 190.207031 333.855469 190.378906 333.832031 C 190.691406 333.792969 190.9375 333.683594 191.117188 333.5 C 191.296875 333.316406 191.386719 333.074219 191.386719 332.773438 C 191.386719 332.484375 191.308594 332.25 191.15625 332.070312 C 191 331.890625 190.769531 331.785156 190.464844 331.746094 C 190.285156 331.722656 189.765625 331.714844 188.902344 331.714844 Z M 187.851562 335.410156 L 187.851562 337.898438 L 189.546875 337.898438 C 190.203125 337.898438 190.621094 337.878906 190.800781 337.839844 C 191.070312 337.789062 191.292969 337.667969 191.464844 337.46875 C 191.636719 337.273438 191.71875 337.011719 191.71875 336.679688 C 191.71875 336.402344 191.65625 336.164062 191.523438 335.96875 C 191.390625 335.777344 191.203125 335.632812 190.953125 335.546875 C 190.703125 335.457031 190.164062 335.410156 189.332031 335.410156 Z M 187.851562 335.410156 "/><path style=" stroke:none;fill-rule:nonzero;fill:#ffffff;fill-opacity:1;" d="M 195.671875 334.871094 C 195.671875 333.925781 195.808594 333.132812 196.085938 332.488281 C 196.289062 332.011719 196.570312 331.589844 196.925781 331.210938 C 197.285156 330.835938 197.675781 330.558594 198.097656 330.375 C 198.664062 330.128906 199.3125 330.007812 200.050781 330.007812 C 201.386719 330.007812 202.453125 330.429688 203.253906 331.28125 C 204.054688 332.132812 204.457031 333.3125 204.457031 334.828125 C 204.457031 336.328125 204.058594 337.503906 203.261719 338.351562 C 202.46875 339.199219 201.40625 339.625 200.074219 339.625 C 198.730469 339.625 197.65625 339.203125 196.863281 338.355469 C 196.066406 337.515625 195.671875 336.351562 195.671875 334.871094 Z M 197.554688 334.808594 C 197.554688 335.863281 197.792969 336.660156 198.265625 337.203125 C 198.738281 337.746094 199.339844 338.019531 200.070312 338.019531 C 200.800781 338.019531 201.398438 337.75 201.867188 337.210938 C 202.332031 336.671875 202.566406 335.863281 202.566406 334.785156 C 202.566406 333.71875 202.339844 332.921875 201.882812 332.398438 C 201.429688 331.875 200.824219 331.613281 200.070312 331.613281 C 199.316406 331.613281 198.707031 331.878906 198.246094 332.410156 C 197.785156 332.9375 197.554688 333.738281 197.554688 334.808594 Z M 197.554688 334.808594 "/><path style=" stroke:none;fill-rule:nonzero;fill:#ffffff;fill-opacity:1;" d="M 210.984375 336.046875 L 210.984375 334.480469 L 214.925781 334.480469 L 214.925781 338.183594 C 214.542969 338.566406 213.984375 338.898438 213.257812 339.191406 C 212.53125 339.480469 211.796875 339.625 211.050781 339.625 C 210.101562 339.625 209.277344 339.417969 208.574219 339.011719 C 207.867188 338.605469 207.339844 338.019531 206.984375 337.261719 C 206.632812 336.503906 206.453125 335.675781 206.453125 334.785156 C 206.453125 333.816406 206.652344 332.953125 207.046875 332.203125 C 207.441406 331.449219 208.019531 330.871094 208.78125 330.46875 C 209.363281 330.160156 210.085938 330.007812 210.953125 330.007812 C 212.074219 330.007812 212.953125 330.25 213.585938 330.734375 C 214.21875 331.21875 214.625 331.886719 214.804688 332.742188 L 212.988281 333.089844 C 212.859375 332.632812 212.621094 332.273438 212.269531 332.011719 C 211.917969 331.746094 211.476562 331.613281 210.953125 331.613281 C 210.152344 331.613281 209.515625 331.875 209.046875 332.394531 C 208.574219 332.914062 208.335938 333.683594 208.335938 334.710938 C 208.335938 335.8125 208.578125 336.640625 209.054688 337.191406 C 209.53125 337.742188 210.15625 338.019531 210.933594 338.019531 C 211.316406 338.019531 211.699219 337.941406 212.085938 337.789062 C 212.46875 337.636719 212.800781 337.449219 213.074219 337.226562 L 213.074219 336.046875 Z M 210.984375 336.046875 "/><path style=" stroke:none;fill-rule:nonzero;fill:#ffffff;fill-opacity:1;" d="M 217.125 334.871094 C 217.125 333.925781 217.261719 333.132812 217.539062 332.488281 C 217.746094 332.011719 218.027344 331.589844 218.382812 331.210938 C 218.738281 330.835938 219.128906 330.558594 219.554688 330.375 C 220.117188 330.128906 220.769531 330.007812 221.503906 330.007812 C 222.839844 330.007812 223.90625 330.429688 224.710938 331.28125 C 225.511719 332.132812 225.910156 333.3125 225.910156 334.828125 C 225.910156 336.328125 225.511719 337.503906 224.71875 338.351562 C 223.921875 339.199219 222.859375 339.625 221.53125 339.625 C 220.183594 339.625 219.113281 339.203125 218.316406 338.355469 C 217.523438 337.515625 217.125 336.351562 217.125 334.871094 Z M 219.011719 334.808594 C 219.011719 335.863281 219.246094 336.660156 219.722656 337.203125 C 220.195312 337.746094 220.796875 338.019531 221.523438 338.019531 C 222.253906 338.019531 222.851562 337.75 223.320312 337.210938 C 223.785156 336.671875 224.019531 335.863281 224.019531 334.785156 C 224.019531 333.71875 223.792969 332.921875 223.339844 332.398438 C 222.882812 331.875 222.277344 331.613281 221.523438 331.613281 C 220.769531 331.613281 220.164062 331.878906 219.703125 332.410156 C 219.242188 332.9375 219.011719 333.738281 219.011719 334.808594 Z M 219.011719 334.808594 "/><path style=" stroke:none;fill-rule:nonzero;fill:#ffffff;fill-opacity:1;" d="M 228.230469 339.464844 L 228.230469 330.164062 L 232.078125 330.164062 C 233.046875 330.164062 233.75 330.25 234.1875 330.414062 C 234.628906 330.582031 234.976562 330.878906 235.242188 331.308594 C 235.503906 331.734375 235.636719 332.222656 235.636719 332.773438 C 235.636719 333.472656 235.4375 334.046875 235.039062 334.5 C 234.640625 334.957031 234.042969 335.242188 233.246094 335.359375 C 233.640625 335.597656 233.96875 335.855469 234.226562 336.140625 C 234.484375 336.425781 234.832031 336.925781 235.265625 337.652344 L 236.371094 339.464844 L 234.1875 339.464844 L 232.863281 337.441406 C 232.394531 336.71875 232.074219 336.261719 231.898438 336.074219 C 231.726562 335.886719 231.542969 335.757812 231.347656 335.6875 C 231.15625 335.617188 230.847656 335.582031 230.429688 335.582031 L 230.058594 335.582031 L 230.058594 339.464844 Z M 230.058594 334.097656 L 231.410156 334.097656 C 232.289062 334.097656 232.835938 334.0625 233.054688 333.984375 C 233.273438 333.90625 233.445312 333.777344 233.570312 333.589844 C 233.691406 333.40625 233.753906 333.171875 233.753906 332.894531 C 233.753906 332.582031 233.671875 332.328125 233.511719 332.136719 C 233.347656 331.945312 233.117188 331.820312 232.820312 331.769531 C 232.671875 331.75 232.226562 331.738281 231.488281 331.738281 L 230.058594 331.738281 Z M 230.058594 334.097656 "/><path style="fill-rule:nonzero;fill:#000000;fill-opacity:1;stroke-width:0.55;stroke-linecap:butt;stroke-linejoin:miter;stroke:#000000;stroke-opacity:1;stroke-miterlimit:10;" d="M 535.651379 470.445695 L 515.652726 470.445695 C 509.046591 470.445695 503.648126 465.042348 503.648126 458.448281 L 503.648126 390.441891 C 503.648126 383.847824 509.046591 378.444478 515.652726 378.444478 L 535.651379 378.444478 C 542.248502 378.444478 547.646967 383.847824 547.646967 390.441891 L 547.646967 458.448281 C 547.646967 465.042348 542.248502 470.445695 535.651379 470.445695 Z M 535.651379 470.445695 " transform="matrix(0.433428,0,0,0.433036,7.302652,6.639429)"/><path style=" stroke:none;fill-rule:nonzero;fill:#f4f4f4;fill-opacity:1;" d="M 241.375 178.445312 L 228.890625 178.445312 C 227.851562 178.445312 227.027344 177.621094 227.027344 176.582031 C 227.027344 175.542969 227.851562 174.71875 228.890625 174.71875 L 241.375 174.71875 C 242.414062 174.71875 243.238281 175.542969 243.238281 176.582031 C 243.238281 177.621094 242.414062 178.445312 241.375 178.445312 Z M 241.375 178.445312 "/><path style=" stroke:none;fill-rule:nonzero;fill:#f4f4f4;fill-opacity:1;" d="M 241.375 182.644531 L 228.890625 182.644531 C 227.851562 182.644531 227.027344 181.824219 227.027344 180.78125 C 227.027344 179.742188 227.851562 178.921875 228.890625 178.921875 L 241.375 178.921875 C 242.414062 178.921875 243.238281 179.742188 243.238281 180.78125 C 243.238281 181.777344 242.414062 182.644531 241.375 182.644531 Z M 241.375 182.644531 "/><path style=" stroke:none;fill-rule:nonzero;fill:#f4f4f4;fill-opacity:1;" d="M 241.375 186.800781 L 228.890625 186.800781 C 227.851562 186.800781 227.027344 185.980469 227.027344 184.9375 C 227.027344 183.902344 227.851562 183.078125 228.890625 183.078125 L 241.375 183.078125 C 242.414062 183.078125 243.238281 183.898438 243.238281 184.9375 C 243.238281 185.980469 242.414062 186.800781 241.375 186.800781 Z M 241.375 186.800781 "/><path style="fill:none;stroke-width:1.493;stroke-linecap:butt;stroke-linejoin:miter;stroke:#f4f4f4;stroke-opacity:1;stroke-miterlimit:10;" d="M 533.452339 442.94185 C 533.452339 443.834891 533.254064 444.682828 532.857516 445.503704 C 532.460968 446.324579 531.893183 447.055249 531.163173 447.677671 C 530.433164 448.309114 529.585992 448.796227 528.630671 449.12999 C 527.67535 449.472773 526.683979 449.644164 525.647546 449.644164 C 524.611113 449.644164 523.619742 449.472773 522.664421 449.12999 C 521.7091 448.796227 520.861929 448.309114 520.131919 447.677671 C 519.40191 447.055249 518.834125 446.324579 518.437576 445.503704 C 518.050041 444.682828 517.851766 443.834891 517.851766 442.94185 C 517.851766 442.05783 518.050041 441.200872 518.437576 440.379996 C 518.834125 439.559121 519.40191 438.837472 520.131919 438.206029 C 520.861929 437.574586 521.7091 437.096494 522.664421 436.753711 C 523.619742 436.410927 524.611113 436.239536 525.647546 436.239536 C 526.683979 436.239536 527.67535 436.410927 528.630671 436.753711 C 529.585992 437.096494 530.433164 437.574586 531.163173 438.206029 C 531.893183 438.837472 532.460968 439.559121 532.857516 440.379996 C 533.254064 441.200872 533.452339 442.05783 533.452339 442.94185 Z M 533.452339 442.94185 " transform="matrix(0.433428,0,0,0.433036,7.302652,6.639429)"/><path style="fill-rule:nonzero;fill:#f4f4f4;fill-opacity:1;stroke-width:0.55;stroke-linecap:butt;stroke-linejoin:miter;stroke:#000000;stroke-opacity:1;stroke-miterlimit:10;" d="M 541.446393 460.739517 L 510.650809 460.739517 C 509.8487 460.739517 509.244865 460.144156 509.244865 459.341322 C 509.244865 458.547508 509.8487 457.943127 510.650809 457.943127 L 541.446393 457.943127 C 542.248502 457.943127 542.852337 458.547508 542.852337 459.341322 C 542.852337 460.144156 542.248502 460.739517 541.446393 460.739517 Z M 541.446393 460.739517 " transform="matrix(0.433428,0,0,0.433036,7.302652,6.639429)"/><path style="fill-rule:nonzero;fill:#f4f4f4;fill-opacity:1;stroke-width:0.55;stroke-linecap:butt;stroke-linejoin:miter;stroke:#000000;stroke-opacity:1;stroke-miterlimit:10;" d="M 541.446393 463.544927 L 510.650809 463.544927 C 509.8487 463.544927 509.244865 462.940546 509.244865 462.146732 C 509.244865 461.343898 509.8487 460.748537 510.650809 460.748537 L 541.446393 460.748537 C 542.248502 460.748537 542.852337 461.343898 542.852337 462.146732 C 542.852337 462.940546 542.248502 463.544927 541.446393 463.544927 Z M 541.446393 463.544927 " transform="matrix(0.433428,0,0,0.433036,7.302652,6.639429)"/></g></svg>